<?xml version="1.0" standalone="no"?>
<!DOCTYPE svg PUBLIC "-//W3C//DTD SVG 20010904//EN"
 "http://www.w3.org/TR/2001/REC-SVG-20010904/DTD/svg10.dtd">
<svg version="1.0" xmlns="http://www.w3.org/2000/svg"
 width="1679.000000pt" height="1679.000000pt" viewBox="0 0 1679.000000 1679.000000"
 preserveAspectRatio="xMidYMid meet">
<metadata>
Created by potrace 1.14, written by Peter Selinger 2001-2017
</metadata>
<g transform="translate(0.000000,1679.000000) scale(0.100000,-0.100000)"
fill="#000000" stroke="none">
<path d="M2189 16315 c-1 -3 -2 -8 -3 -12 -1 -5 -9 -19 -18 -33 -9 -14 -19
-35 -23 -47 -3 -13 -11 -23 -16 -23 -6 0 -7 -4 -4 -10 3 -5 1 -10 -5 -10 -6 0
-9 -4 -5 -9 3 -5 0 -13 -6 -16 -5 -4 -8 -13 -5 -20 2 -7 -2 -16 -9 -19 -8 -3
-12 -12 -9 -21 3 -8 2 -15 -4 -15 -8 0 -23 -46 -21 -66 0 -4 -4 -10 -11 -14
-6 -4 -12 -17 -13 -28 -1 -12 -5 -22 -10 -22 -4 0 -5 -5 -2 -10 4 -6 1 -17 -5
-25 -10 -11 -10 -15 -1 -15 7 0 9 -5 5 -12 -11 -18 -11 -168 0 -168 4 0 3 -6
-3 -14 -9 -11 -9 -16 -1 -21 7 -4 10 -16 7 -26 -3 -10 -2 -21 2 -23 4 -3 7
-21 6 -40 -2 -27 2 -36 13 -36 12 0 13 -3 4 -12 -9 -9 -7 -15 6 -25 9 -8 11
-12 5 -8 -7 3 -13 1 -13 -4 0 -6 5 -11 12 -11 6 0 9 -3 5 -6 -6 -6 8 -50 42
-127 11 -26 20 -50 20 -54 0 -3 3 -9 8 -12 4 -3 17 -23 28 -44 11 -20 30 -48
43 -62 12 -14 19 -25 15 -25 -4 -1 2 -9 15 -20 13 -10 23 -23 22 -27 0 -4 11
-20 25 -35 14 -14 25 -31 25 -38 0 -6 5 -8 10 -5 6 3 10 0 10 -7 0 -8 9 -20
20 -28 11 -8 20 -19 20 -24 0 -5 12 -19 28 -32 15 -13 24 -24 20 -24 -3 0 8
-15 25 -33 28 -29 61 -67 117 -137 8 -10 22 -28 30 -40 8 -12 20 -28 25 -34
17 -20 35 -50 48 -78 6 -16 15 -28 19 -28 4 0 8 -9 8 -20 0 -11 5 -20 10 -20
6 0 10 -7 10 -15 0 -8 5 -24 10 -35 6 -11 14 -28 18 -37 5 -10 8 -34 8 -54 -1
-29 2 -36 14 -31 12 5 13 3 2 -10 -13 -16 -12 -44 1 -65 5 -7 4 -13 -1 -13 -4
0 -9 -12 -10 -27 -1 -34 -8 -79 -17 -113 -3 -14 -8 -32 -10 -40 -2 -8 -4 -17
-5 -20 -1 -3 -2 -8 -1 -12 0 -5 -4 -8 -10 -8 -6 0 -8 -7 -5 -16 3 -8 2 -12 -4
-9 -6 3 -10 1 -10 -6 0 -20 -43 -109 -52 -109 -5 0 -6 -4 -3 -10 3 -5 1 -10
-4 -10 -6 0 -11 -6 -11 -13 0 -8 -18 -39 -40 -71 -22 -32 -35 -54 -28 -50 7 4
3 -3 -9 -15 -13 -12 -23 -26 -23 -32 0 -6 -4 -8 -9 -5 -5 3 -12 -5 -15 -19 -4
-14 -11 -25 -16 -25 -6 0 -10 -5 -10 -11 0 -7 -10 -20 -22 -30 -11 -11 -17
-19 -13 -19 4 0 -4 -11 -19 -25 -14 -13 -26 -27 -25 -31 0 -3 -12 -20 -28 -37
-15 -18 -28 -34 -28 -37 0 -5 -29 -40 -52 -65 -7 -8 -13 -18 -13 -23 0 -6 -7
-12 -15 -16 -8 -3 -15 -10 -15 -15 0 -9 -24 -40 -62 -82 -10 -10 -19 -22 -19
-26 -4 -23 -23 -52 -30 -47 -5 3 -9 -2 -9 -10 0 -8 -7 -22 -16 -30 -8 -9 -13
-16 -9 -16 4 0 -1 -7 -9 -16 -9 -8 -16 -22 -16 -30 0 -8 -4 -14 -10 -14 -5 0
-10 -9 -10 -20 0 -11 -4 -20 -9 -20 -10 0 -27 -39 -23 -52 1 -5 -3 -8 -9 -8
-5 0 -7 -4 -4 -10 3 -5 1 -10 -6 -10 -7 0 -9 -3 -6 -7 4 -3 0 -17 -8 -30 -9
-13 -13 -28 -10 -33 3 -6 2 -10 -2 -10 -5 0 -9 -10 -10 -22 -1 -11 -7 -24 -13
-28 -5 -3 -10 -17 -9 -31 0 -13 -3 -40 -7 -59 -4 -19 -7 -50 -8 -67 0 -18 -4
-33 -8 -33 -5 0 -4 -9 2 -20 8 -15 8 -20 -1 -20 -9 0 -9 -3 0 -14 9 -11 9 -15
-1 -18 -10 -4 -10 -9 2 -23 8 -11 10 -16 3 -11 -9 5 -12 0 -11 -18 1 -15 6
-26 11 -26 5 0 4 -7 -3 -15 -10 -12 -10 -15 0 -15 10 0 10 -3 1 -14 -9 -11 -9
-15 1 -19 10 -4 10 -6 -1 -6 -11 -1 -11 -4 -1 -16 7 -8 8 -15 3 -15 -10 0 -11
-27 -2 -45 2 -6 4 -32 4 -60 0 -27 4 -53 10 -57 6 -5 5 -8 -4 -8 -11 0 -11 -3
-1 -15 7 -8 9 -15 4 -15 -5 0 -9 -13 -10 -30 -1 -16 2 -28 6 -25 3 2 4 -9 2
-26 -3 -20 0 -29 9 -29 9 -1 8 -4 -4 -11 -14 -8 -16 -14 -6 -25 6 -8 7 -14 3
-14 -5 0 -8 -17 -6 -37 1 -21 2 -42 2 -48 0 -5 -2 -34 -3 -62 -2 -29 -6 -56
-10 -59 -3 -4 -2 -15 3 -25 7 -12 7 -20 0 -24 -8 -5 -7 -12 2 -23 8 -9 8 -13
2 -9 -7 4 -14 0 -18 -8 -3 -8 0 -17 6 -21 7 -4 6 -9 -3 -15 -11 -7 -11 -9 -1
-9 8 0 10 -5 5 -12 -4 -7 -8 -38 -9 -68 -1 -41 -4 -54 -15 -52 -9 2 -6 -4 6
-19 11 -12 14 -19 8 -15 -9 5 -13 -2 -14 -26 -2 -67 -4 -83 -12 -95 -5 -8 -4
-13 3 -13 6 0 8 -5 5 -10 -4 -6 -10 -8 -15 -5 -4 3 -4 -11 0 -30 5 -21 4 -35
-2 -35 -5 0 -8 -8 -6 -17 1 -10 -1 -24 -5 -30 -5 -7 -4 -13 1 -13 6 0 8 -9 5
-20 -3 -11 -8 -18 -12 -16 -3 2 -5 -13 -5 -35 1 -21 -2 -42 -8 -45 -5 -3 -4
-12 4 -22 10 -12 10 -14 1 -8 -10 5 -13 -2 -13 -28 0 -19 -6 -37 -12 -39 -10
-4 -10 -6 0 -6 9 -1 10 -6 3 -18 -10 -21 -11 -24 -11 -59 0 -17 -4 -23 -12
-18 -10 5 -10 4 -1 -6 8 -9 9 -19 2 -32 -5 -10 -7 -23 -4 -28 3 -6 2 -10 -2
-10 -5 0 -9 -10 -10 -22 -1 -23 -10 -73 -13 -73 -1 0 -4 -16 -6 -35 -3 -19 -5
-41 -6 -47 -1 -7 -5 -13 -9 -13 -4 0 -6 -11 -4 -25 1 -14 -2 -25 -7 -25 -5 0
-6 -4 -3 -10 3 -5 0 -10 -7 -10 -9 0 -9 -3 2 -10 11 -7 11 -10 2 -10 -7 0 -11
-4 -8 -8 3 -5 -1 -21 -9 -36 -8 -14 -10 -24 -5 -21 6 4 10 1 10 -4 0 -6 -4
-11 -8 -11 -7 0 -12 -19 -15 -62 -1 -10 -5 -18 -10 -18 -4 0 -6 -4 -3 -9 5 -7
0 -26 -22 -91 -9 -25 -9 -29 -11 -56 0 -14 -5 -23 -9 -20 -4 2 -9 -5 -10 -17
-4 -39 -8 -56 -14 -63 -4 -3 -4 -12 -1 -20 3 -8 0 -14 -6 -14 -6 0 -10 -3 -10
-7 1 -5 1 -10 -1 -13 -1 -3 -3 -16 -6 -30 -2 -14 -7 -32 -11 -40 -3 -8 -8 -22
-10 -30 -5 -19 -9 -31 -16 -50 -21 -57 -37 -122 -32 -131 4 -5 1 -8 -6 -7 -10
3 -14 -10 -21 -59 -1 -7 -6 -13 -11 -13 -5 0 -7 -9 -4 -20 3 -11 1 -20 -4 -20
-5 0 -9 -8 -9 -19 0 -10 -7 -24 -15 -31 -12 -10 -13 -16 -4 -26 9 -11 8 -14 0
-14 -7 0 -9 -4 -6 -10 3 -5 1 -10 -6 -10 -7 0 -9 -3 -6 -7 4 -3 3 -11 -2 -17
-14 -17 -41 -99 -35 -108 3 -4 0 -8 -5 -8 -6 0 -11 -11 -11 -24 0 -13 -5 -26
-10 -28 -6 -2 -13 -17 -16 -33 -3 -17 -9 -31 -14 -33 -5 -2 -6 -10 -3 -18 3
-8 0 -14 -7 -14 -7 0 -10 -6 -7 -14 3 -7 0 -19 -6 -25 -6 -6 -12 -16 -13 -23
-1 -7 -8 -26 -15 -43 -7 -16 -12 -33 -11 -37 1 -5 -3 -8 -9 -8 -5 0 -8 -4 -4
-9 3 -5 0 -13 -6 -16 -5 -4 -8 -13 -5 -21 3 -8 1 -14 -5 -14 -6 0 -7 -4 -4
-10 3 -5 1 -10 -4 -10 -6 0 -11 -7 -11 -15 0 -8 -9 -30 -20 -50 -11 -20 -20
-44 -20 -55 0 -11 -5 -20 -11 -20 -6 0 -9 -6 -6 -14 3 -8 -1 -17 -9 -20 -9 -3
-13 -10 -10 -15 4 -5 -1 -17 -10 -25 -11 -12 -12 -16 -2 -16 8 -1 4 -8 -9 -19
-12 -10 -19 -21 -16 -24 3 -4 -2 -18 -12 -33 -11 -18 -13 -24 -4 -19 8 3 3 -3
-10 -14 -13 -12 -18 -21 -11 -21 7 0 6 -6 -4 -16 -9 -8 -16 -20 -16 -26 0 -15
-52 -122 -63 -129 -5 -3 -8 -9 -8 -13 4 -26 0 -36 -11 -30 -7 4 -10 4 -6 -1 4
-4 1 -20 -8 -36 -8 -16 -15 -32 -15 -36 -1 -5 -10 -20 -20 -34 -10 -14 -16
-29 -12 -33 3 -3 1 -6 -6 -6 -7 0 -10 -4 -6 -9 3 -5 -2 -17 -11 -25 -8 -9 -12
-16 -8 -16 3 0 1 -7 -6 -15 -7 -8 -9 -15 -6 -15 4 0 -2 -10 -13 -22 -11 -11
-18 -24 -16 -28 3 -4 -2 -13 -10 -20 -8 -7 -12 -16 -10 -21 3 -4 -1 -11 -9
-16 -8 -4 -15 -11 -15 -16 -1 -19 -38 -87 -44 -81 -3 4 -5 -3 -2 -14 2 -12 -3
-23 -11 -26 -9 -3 -12 -10 -9 -16 3 -5 2 -10 -3 -10 -6 0 -13 -11 -16 -25 -4
-16 -11 -23 -18 -19 -7 5 -9 2 -5 -9 3 -8 -1 -21 -9 -28 -8 -6 -12 -14 -10
-17 3 -2 -2 -11 -10 -19 -8 -8 -12 -19 -9 -24 4 -5 -1 -9 -9 -9 -10 0 -13 -6
-10 -15 4 -8 1 -15 -5 -15 -6 0 -11 -7 -11 -15 0 -8 -5 -15 -11 -15 -5 0 -7
-5 -4 -10 3 -6 2 -10 -3 -10 -4 0 -14 -16 -22 -35 -8 -19 -17 -35 -22 -35 -4
0 -8 -9 -8 -19 0 -11 -5 -23 -10 -26 -6 -4 -8 -11 -5 -16 4 -5 1 -9 -5 -9 -6
0 -8 -5 -5 -10 3 -6 0 -10 -7 -10 -11 0 -11 -2 0 -9 10 -6 10 -10 -2 -21 -9
-7 -13 -16 -10 -22 3 -5 1 -14 -4 -21 -5 -7 -8 -20 -7 -29 2 -10 -1 -18 -6
-18 -5 0 -9 -5 -9 -11 0 -5 4 -7 10 -4 5 3 10 1 10 -4 0 -6 -4 -11 -10 -11 -5
0 -10 -5 -10 -11 0 -5 4 -8 8 -5 5 3 6 -8 4 -25 -2 -16 1 -35 7 -43 8 -10 9
-16 1 -21 -7 -4 -7 -12 1 -26 6 -11 8 -27 5 -35 -3 -8 -1 -14 3 -14 5 0 8 -11
7 -24 -2 -14 3 -27 10 -30 8 -3 11 -12 7 -22 -3 -9 0 -20 8 -25 12 -7 12 -9
-1 -9 -11 0 -12 -2 -3 -8 7 -5 14 -20 15 -35 1 -15 6 -27 10 -27 4 0 8 -13 8
-30 0 -16 5 -30 10 -30 6 0 10 -11 10 -25 0 -14 5 -25 12 -25 6 0 8 -3 5 -7
-4 -3 0 -17 8 -30 9 -13 13 -23 10 -23 -3 0 6 -21 20 -46 14 -25 20 -42 14
-38 -8 4 -9 3 -5 -4 4 -7 15 -12 24 -12 15 0 15 -2 2 -10 -8 -5 -10 -10 -4
-10 6 0 17 -12 25 -27 14 -28 33 -53 57 -79 7 -8 10 -14 6 -14 -5 0 9 -16 29
-35 20 -19 37 -39 37 -45 0 -5 4 -10 9 -10 5 0 27 -18 50 -40 22 -22 47 -40
55 -40 7 0 21 -10 30 -23 9 -12 14 -16 10 -9 -5 11 -2 11 14 1 12 -7 18 -17
15 -23 -3 -5 -1 -6 6 -2 6 4 18 2 26 -4 8 -7 15 -9 15 -4 0 5 4 3 8 -4 5 -7
21 -15 37 -18 15 -3 36 -9 47 -15 10 -5 18 -7 18 -3 0 3 6 1 14 -5 8 -7 33
-13 55 -14 23 -1 41 -6 41 -10 0 -4 7 -4 16 1 10 6 30 4 53 -4 24 -8 38 -9 42
-2 4 7 9 6 13 -1 4 -6 11 -9 16 -6 4 3 28 6 52 7 23 0 46 6 50 12 5 7 8 6 8
-4 0 -13 1 -13 10 0 8 12 10 12 10 1 0 -11 3 -11 15 -1 9 7 18 10 22 6 3 -3
16 0 27 7 12 8 30 13 41 11 10 -2 25 2 32 8 7 6 13 7 13 3 0 -4 7 -2 15 5 8 6
18 9 24 6 5 -3 11 -3 13 1 1 5 27 19 56 32 28 14 52 28 52 33 0 5 4 7 9 3 5
-3 17 2 25 11 9 8 16 13 16 10 0 -5 9 1 62 47 12 9 25 17 30 17 5 0 6 5 3 10
-3 6 1 10 9 10 9 0 16 4 16 9 0 4 10 19 23 33 49 54 69 80 79 104 6 13 14 24
18 24 4 0 13 13 20 30 7 16 17 30 22 30 5 0 7 4 3 9 -3 5 -1 12 5 16 6 4 8 11
5 16 -4 5 -1 9 4 9 6 0 11 9 11 21 0 11 4 18 9 15 5 -4 8 1 7 11 -2 9 4 29 11
45 8 15 11 33 7 39 -4 8 -3 9 4 5 8 -5 12 1 12 16 0 13 6 30 12 37 11 11 10
12 -2 6 -12 -7 -13 -6 -5 6 6 8 12 28 14 44 2 17 8 36 14 44 10 12 9 13 -2 6
-11 -6 -13 -4 -7 11 12 29 13 67 1 83 -7 11 -7 13 2 8 13 -8 12 30 -2 52 -5
10 -4 12 3 7 15 -9 15 -1 1 26 -8 15 -8 19 0 14 6 -4 11 -2 11 3 0 6 -5 11
-11 11 -5 0 -8 4 -5 8 2 4 1 14 -4 22 -5 9 -5 19 2 27 7 9 7 13 -1 13 -8 0
-10 8 -6 20 3 11 3 20 -2 20 -5 0 -10 10 -11 23 -4 39 -8 56 -15 63 -4 4 -7
15 -7 25 0 33 -24 10 -55 -52 -16 -34 -40 -72 -51 -84 -12 -13 -20 -26 -18
-28 2 -2 -11 -19 -31 -38 -19 -19 -35 -38 -35 -42 0 -4 -18 -25 -39 -46 -22
-22 -37 -42 -33 -46 4 -4 2 -5 -4 -3 -6 2 -29 -13 -50 -32 -22 -19 -42 -34
-46 -33 -4 2 -12 -6 -18 -17 -6 -11 -15 -18 -20 -15 -5 3 -15 -3 -22 -13 -7
-11 -17 -21 -23 -22 -5 -2 -18 -5 -27 -8 -10 -2 -18 -9 -18 -14 0 -5 -5 -6
-10 -3 -6 3 -13 -1 -16 -10 -4 -9 -13 -14 -20 -11 -8 3 -14 1 -14 -5 0 -6 -4
-7 -10 -4 -5 3 -10 1 -10 -6 0 -7 -3 -9 -7 -6 -3 4 -17 0 -31 -9 -13 -8 -26
-13 -30 -10 -3 3 -14 -1 -24 -11 -10 -9 -18 -13 -18 -8 0 4 -11 0 -25 -9 -13
-9 -28 -16 -32 -16 -4 0 -1 5 7 10 9 6 10 10 3 10 -6 0 -15 -5 -18 -10 -3 -6
-17 -10 -31 -10 -22 0 -30 13 -25 43 0 4 -3 7 -9 7 -6 0 -10 30 -10 71 0 50 3
68 12 63 7 -5 8 -3 2 7 -13 21 -14 39 -2 39 6 0 8 7 4 15 -3 8 -1 15 4 15 6 0
9 3 9 8 -1 4 4 23 12 42 7 19 12 38 11 43 -1 4 2 7 7 7 10 0 27 39 23 53 -1 4
2 7 8 7 5 0 17 17 27 38 9 20 23 43 30 50 7 7 13 19 13 26 0 8 7 19 15 26 8 7
12 16 9 21 -3 5 2 9 11 9 9 0 13 5 10 10 -3 6 2 22 13 38 21 30 36 63 34 75
-1 4 2 7 6 7 8 0 22 29 53 105 7 17 13 33 14 38 2 4 4 10 5 15 1 4 2 10 1 15
0 4 3 7 9 7 5 0 10 9 10 21 0 11 3 18 8 16 4 -3 8 6 9 20 0 14 7 29 15 34 7 5
9 9 4 9 -5 0 -2 8 7 18 10 10 14 22 10 25 -3 4 -1 7 5 7 10 0 24 29 19 41 -1
3 5 14 13 24 18 22 38 55 46 78 3 9 10 17 15 17 5 0 9 9 9 20 0 11 5 20 11 20
5 0 7 5 4 10 -3 6 -3 10 2 10 4 0 19 25 33 55 14 30 28 55 32 55 3 0 9 13 13
29 3 16 13 32 21 35 9 3 13 10 10 15 -4 5 0 16 8 24 8 8 12 17 9 21 -3 3 2 8
11 12 11 4 15 13 10 26 -3 12 -2 18 3 15 5 -4 17 9 26 28 9 19 22 35 27 35 6
0 9 4 5 9 -3 5 -1 12 5 16 6 4 8 11 5 16 -4 5 -1 9 4 9 6 0 11 7 11 16 0 9 5
12 12 8 6 -4 8 -3 5 3 -3 5 4 25 17 44 12 19 29 49 37 67 8 17 17 32 21 32 5
0 8 9 8 20 0 11 4 20 8 20 5 0 19 23 32 50 13 28 28 50 33 50 5 0 7 9 4 20 -3
11 0 18 7 17 6 -1 10 4 8 11 -1 6 2 12 8 12 5 0 10 7 10 15 0 8 8 23 18 33 9
10 19 27 20 37 2 11 9 23 15 27 7 4 8 8 3 8 -5 0 -2 8 7 18 10 10 14 22 10 25
-3 4 -2 7 3 7 6 0 16 16 24 35 8 19 17 35 21 35 7 0 22 39 20 53 -1 4 3 7 9 7
5 0 10 7 10 15 0 7 6 18 14 22 8 4 14 12 14 16 0 16 25 67 34 67 5 0 7 4 3 9
-3 5 -1 12 5 16 6 4 8 10 6 14 -3 4 4 17 14 29 11 12 20 28 20 37 0 8 5 15 11
15 5 0 7 5 4 10 -3 6 -1 10 6 10 7 0 9 3 6 7 -4 3 1 15 10 26 10 10 16 20 15
21 -7 2 23 61 38 74 8 8 9 11 2 7 -11 -6 -11 -3 0 14 7 12 16 21 21 21 4 0 6
4 3 8 -3 5 2 20 12 33 9 13 17 30 19 37 1 8 9 22 18 32 9 10 18 24 19 32 1 7
8 23 14 36 7 12 10 22 6 22 -4 0 2 10 14 23 12 13 19 27 15 30 -3 4 -1 7 6 7
7 0 10 4 6 9 -3 5 0 13 6 16 5 4 8 14 5 22 -3 8 -2 11 3 8 9 -5 23 23 18 36
-1 4 5 15 14 25 9 11 20 29 23 42 4 12 12 22 17 22 5 0 8 3 7 8 -3 9 25 72 32
72 3 0 7 10 7 22 1 13 7 24 13 26 5 2 10 12 10 22 0 11 7 23 16 28 9 5 15 12
15 16 -1 3 6 20 14 36 9 17 12 30 8 30 -5 0 0 5 10 11 9 5 17 17 17 24 0 8 5
15 11 15 6 0 9 7 5 15 -3 8 -1 15 4 15 5 0 12 9 15 21 6 18 19 19 20 1 1 -4 5
-25 10 -47 4 -22 7 -44 6 -49 -1 -4 3 -14 10 -22 6 -8 9 -20 6 -28 -6 -15 10
-36 27 -36 6 0 4 5 -4 10 -11 7 -11 10 -2 10 7 0 10 5 7 10 -3 6 -2 10 4 10 5
0 8 9 6 20 -2 13 2 20 11 20 8 0 12 4 9 10 -6 9 42 92 58 98 4 2 7 10 7 18 0
8 5 14 10 14 6 0 10 7 10 15 0 8 5 15 10 15 6 0 10 7 10 16 0 8 5 12 10 9 6
-3 10 0 10 7 0 7 15 29 33 50 17 20 46 53 62 74 17 21 44 52 62 70 17 18 29
35 26 38 -4 3 1 6 10 6 9 0 17 5 17 11 0 6 20 31 45 55 24 24 42 44 40 44 -3
0 18 22 45 49 27 27 47 51 44 54 -3 3 4 8 15 12 12 3 21 13 21 21 0 8 4 13 9
9 5 -3 12 4 16 15 4 11 11 18 16 15 5 -4 9 0 9 9 0 8 14 20 30 28 17 7 28 18
26 25 -3 6 8 17 25 23 16 7 26 16 23 21 -3 5 1 9 8 9 7 0 19 9 26 21 7 12 16
19 19 16 4 -5 12 0 65 46 12 9 27 17 35 17 7 0 13 5 13 10 0 6 7 10 15 10 8 0
15 5 15 11 0 5 5 7 10 4 6 -3 13 0 16 9 9 23 30 9 29 -19 -1 -14 -5 -28 -8
-32 -12 -11 -8 -25 5 -17 8 5 8 3 2 -7 -13 -20 -13 -113 0 -121 8 -6 8 -8 -1
-8 -12 0 -12 -17 0 -37 5 -8 3 -13 -4 -13 -10 0 -10 -3 -1 -12 7 -7 8 -17 2
-29 -7 -12 -6 -20 1 -25 8 -4 7 -9 -2 -15 -9 -6 -10 -9 -2 -9 12 0 12 -24 0
-36 -3 -4 -3 -14 2 -23 4 -9 8 -42 9 -74 1 -31 4 -62 7 -67 3 -6 0 -10 -7 -10
-9 0 -9 -3 2 -10 11 -7 11 -10 2 -10 -8 0 -10 -5 -5 -12 4 -7 6 -21 5 -30 -2
-10 3 -18 10 -18 8 0 9 -3 3 -8 -13 -9 -16 -42 -4 -42 6 0 5 -8 -1 -19 -7 -14
-7 -22 0 -26 8 -5 8 -11 0 -20 -8 -10 -8 -15 0 -20 8 -5 8 -10 0 -20 -8 -10
-8 -15 0 -20 8 -5 8 -11 1 -19 -7 -9 -7 -16 0 -23 8 -8 8 -13 0 -17 -6 -4 -11
-12 -11 -17 0 -6 6 -7 13 -3 9 6 9 4 -1 -8 -10 -13 -10 -17 0 -21 8 -3 6 -6
-6 -6 -14 -1 -16 -4 -7 -14 6 -8 8 -17 4 -21 -4 -4 -8 -24 -8 -44 0 -20 -4
-42 -8 -49 -4 -7 -9 -33 -10 -58 -1 -25 -5 -45 -8 -45 -3 0 -5 -10 -5 -22 1
-13 -2 -32 -8 -43 -11 -20 -16 -46 -17 -77 0 -10 -4 -20 -9 -23 -5 -3 -7 -12
-3 -20 3 -8 0 -15 -5 -15 -6 0 -9 -9 -7 -20 2 -11 -1 -20 -6 -20 -6 0 -8 -4
-5 -8 3 -5 -1 -21 -9 -36 -8 -15 -14 -30 -13 -34 1 -4 -3 -17 -10 -29 -7 -12
-11 -28 -10 -35 2 -7 -3 -12 -10 -10 -8 1 -11 -2 -7 -8 4 -6 -1 -22 -10 -37
-9 -14 -12 -22 -6 -19 7 5 9 1 5 -8 -3 -9 -9 -16 -13 -16 -4 0 -8 -7 -9 -15
-1 -8 -3 -22 -4 -30 -1 -8 -6 -15 -11 -15 -5 0 -7 -7 -3 -15 3 -8 2 -15 -2
-15 -4 0 -9 -10 -9 -22 -1 -13 -7 -24 -12 -26 -5 -2 -7 -10 -4 -19 4 -10 2
-14 -4 -10 -6 4 -9 -3 -7 -18 1 -14 -2 -25 -7 -25 -6 0 -7 -4 -4 -10 3 -5 1
-10 -5 -10 -6 0 -9 -4 -6 -9 4 -5 -3 -31 -14 -57 -11 -26 -22 -54 -23 -63 -1
-9 -7 -23 -12 -31 -8 -13 -7 -13 8 -1 10 8 16 16 13 18 -5 5 40 55 48 54 3 -1
14 7 24 17 38 36 72 62 82 62 6 0 10 5 10 11 0 5 5 7 10 4 6 -3 10 -2 10 3 0
6 23 24 50 42 28 18 50 36 50 41 0 5 3 8 8 7 4 -2 16 6 27 17 11 11 33 30 49
43 16 12 27 25 24 28 -3 3 8 19 24 37 54 58 58 64 58 75 0 7 5 12 12 12 6 0 9
3 5 6 -3 3 4 17 16 31 12 13 21 27 19 29 -1 2 2 10 8 17 40 48 50 62 50 73 0
7 7 19 15 28 9 8 15 17 13 18 -3 4 35 62 45 69 5 3 8 8 6 10 -5 8 13 49 21 49
5 0 7 7 4 15 -4 8 -1 15 6 15 6 0 8 5 5 10 -3 6 -1 10 4 10 6 0 11 9 11 20 0
11 5 20 11 20 6 0 9 6 7 12 -3 7 1 19 9 26 7 8 11 18 8 23 -4 5 -1 9 6 9 7 0
10 3 6 6 -3 4 1 13 9 21 8 8 12 19 9 24 -4 5 -1 9 5 9 6 0 9 4 5 9 -3 5 0 13
6 16 5 4 8 14 5 22 -3 8 -1 11 4 8 6 -3 10 3 10 14 0 12 5 21 10 21 6 0 10 11
10 24 0 13 6 26 14 29 9 4 12 14 9 26 -3 12 -1 21 6 21 6 0 11 8 11 18 0 10 3
22 8 26 7 7 8 11 11 37 0 5 5 8 10 5 5 -3 9 6 9 21 0 15 5 29 11 31 6 2 11 17
11 33 0 16 5 29 10 29 6 0 10 9 10 21 0 11 4 18 9 15 4 -3 6 6 3 21 -4 20 -2
24 8 18 10 -6 12 -4 7 8 -3 9 -2 19 4 22 5 4 7 11 4 16 -4 5 -2 9 2 9 5 0 9
10 10 22 1 11 7 24 13 28 7 4 11 9 10 11 -4 9 21 89 30 94 5 3 7 12 4 19 -3 8
-1 17 5 20 6 4 8 13 4 21 -3 8 0 15 7 15 6 0 9 4 5 9 -3 5 -1 12 4 15 5 3 12
23 16 43 3 21 13 49 22 62 11 17 12 21 2 15 -10 -6 -10 -3 1 11 11 14 12 19 2
22 -6 3 -9 10 -6 15 4 7 2 8 -5 4 -6 -4 -18 -2 -26 4 -12 10 -15 10 -15 1 0
-8 -6 -7 -16 3 -18 18 -28 21 -18 5 3 -6 -7 -4 -24 5 -16 8 -32 12 -36 9 -3
-4 -6 -2 -6 4 0 6 -15 14 -32 18 -36 8 -45 11 -53 15 -3 1 -10 3 -15 4 -6 0
-15 8 -20 16 -5 8 -12 11 -16 7 -11 -11 -116 101 -108 115 4 7 3 8 -4 4 -7 -4
-12 -1 -12 8 0 9 -4 16 -10 16 -5 0 -10 7 -10 15 0 8 -4 15 -10 15 -5 0 -10 7
-10 16 0 9 -5 12 -12 8 -7 -4 -8 -3 -4 4 7 12 56 13 56 1 0 -3 13 -6 30 -6 16
0 27 5 23 10 -4 6 -1 7 7 2 7 -4 16 -2 21 6 7 12 9 12 9 0 0 -11 3 -11 15 -1
8 7 15 9 15 5 0 -4 7 -2 15 5 12 10 15 10 15 -1 1 -10 5 -9 14 4 11 14 15 15
19 5 4 -10 6 -10 6 0 1 6 10 12 21 12 11 0 20 4 20 10 0 5 7 7 15 4 8 -4 15
-1 15 6 0 7 7 10 15 6 9 -3 18 1 21 9 4 8 10 12 16 9 5 -3 17 1 26 9 9 9 20
15 24 14 4 -1 16 6 27 15 11 9 22 14 25 11 3 -4 6 -1 6 6 0 7 5 9 10 6 6 -3
10 -1 10 5 0 6 5 8 10 5 6 -3 10 -2 10 4 0 6 15 18 33 27 17 10 26 19 20 21
-7 3 -13 11 -13 19 0 8 -6 11 -15 8 -8 -4 -15 -1 -15 6 0 6 -4 9 -9 5 -5 -3
-17 2 -25 11 -9 8 -16 12 -16 7 0 -4 -7 1 -15 11 -9 12 -15 15 -15 7 0 -10 -3
-11 -13 -2 -8 6 -17 8 -20 4 -4 -3 -9 1 -13 10 -3 9 -14 14 -25 12 -10 -2 -19
1 -19 7 0 5 -7 8 -15 4 -8 -3 -15 -1 -15 3 0 5 -7 12 -16 15 -10 4 -13 2 -8
-7 4 -6 -3 -3 -16 8 -13 11 -20 14 -16 7 4 -7 -7 -4 -26 8 -36 22 -53 26 -43
9 8 -12 -37 11 -46 25 -4 5 -14 6 -23 3 -9 -4 -16 -2 -16 2 0 5 -8 8 -17 7
-10 -2 -20 0 -23 5 -3 4 -22 9 -43 11 -20 1 -37 6 -37 11 0 5 -6 4 -14 -2 -9
-7 -17 -8 -20 -2 -7 11 -25 9 -45 -3 -10 -6 -12 -5 -7 3 6 8 0 11 -18 9 -14
-2 -28 -7 -32 -11 -13 -13 -24 -7 -24 13 0 11 4 20 8 20 4 0 9 10 9 22 1 13 7
24 13 26 5 2 8 8 4 13 -3 5 0 9 6 9 6 0 9 4 6 9 -7 12 82 103 94 96 6 -3 10 0
10 8 0 7 6 14 13 15 44 6 57 9 64 17 5 4 2 5 -6 0 -10 -6 -12 -4 -7 4 6 9 11
9 22 0 10 -8 14 -8 14 -1 0 6 7 9 15 6 8 -4 22 -1 30 6 11 9 15 9 15 1 0 -7 5
-9 13 -4 18 11 37 13 37 2 0 -5 11 -4 25 1 16 6 25 6 25 -1 0 -6 6 -6 18 0 11
6 24 6 35 0 11 -6 17 -6 17 0 0 5 9 7 20 4 11 -3 17 -10 14 -17 -3 -6 2 -2 10
8 9 11 16 15 16 10 0 -6 23 -10 55 -9 32 1 52 -2 48 -8 -3 -5 4 -4 15 2 14 8
23 8 27 1 5 -8 11 -8 20 0 10 8 14 7 18 -2 4 -10 6 -10 6 0 1 6 8 12 17 12 9
0 13 -5 9 -12 -4 -7 1 -4 9 6 12 15 16 16 16 5 0 -8 3 -10 8 -4 8 12 29 18 55
17 9 0 17 3 17 8 0 5 9 7 20 5 11 -2 20 1 20 6 0 6 4 8 8 5 4 -2 13 4 20 14 9
15 8 19 -5 24 -11 5 -12 10 -4 19 8 10 7 17 -1 25 -9 9 -9 12 1 12 9 0 10 4 4
13 -5 6 -8 24 -7 40 2 15 0 27 -4 27 -4 0 -8 9 -8 20 0 11 4 20 9 20 5 0 1 7
-8 16 -13 14 -14 19 -3 25 11 7 11 9 -1 9 -7 0 -11 6 -7 15 3 8 2 15 -3 15 -4
0 -8 6 -9 13 -6 48 -10 59 -19 65 -5 4 -9 15 -7 25 1 9 -2 17 -8 17 -6 0 -8 9
-5 20 3 11 1 18 -4 15 -4 -3 -15 8 -24 25 -8 16 -13 30 -10 30 3 0 -5 11 -19
23 -14 13 -22 27 -18 31 4 4 -1 12 -11 17 -9 6 -17 15 -17 20 0 6 -6 16 -12
23 -7 8 -20 24 -28 36 -15 22 -54 68 -87 103 -10 11 -17 23 -15 29 1 5 -1 8
-5 6 -10 -5 -83 69 -75 77 3 3 0 5 -6 5 -17 0 -82 66 -74 75 4 5 2 5 -4 2 -6
-3 -25 7 -43 23 -18 17 -29 30 -25 30 4 0 -9 13 -29 29 -20 15 -34 31 -30 35
3 3 1 6 -6 6 -6 0 -23 11 -37 25 -14 14 -23 25 -21 25 3 0 -12 18 -32 39 -68
75 -91 104 -91 117 0 8 -5 14 -12 14 -6 0 -8 3 -5 7 4 3 0 15 -10 25 -13 14
-13 18 -2 18 8 0 10 3 4 8 -16 11 -39 56 -25 47 9 -5 10 -1 5 15 -5 14 -3 20
3 16 6 -4 8 2 5 14 -4 14 6 32 36 60 23 23 46 38 51 35 6 -4 10 -2 10 2 0 12
67 36 79 29 5 -3 12 1 15 10 5 14 9 14 23 3 9 -8 14 -9 10 -3 -4 7 8 11 35 12
22 1 48 8 56 14 12 10 16 10 19 1 3 -8 12 -9 27 -3 12 4 29 5 36 0 7 -5 23 -5
34 -1 12 3 48 5 81 4 55 -3 71 -3 108 -3 41 0 94 -7 106 -15 11 -6 12 -4 5 6
-6 10 -2 10 17 -2 18 -12 30 -14 42 -7 12 6 17 5 17 -3 0 -6 6 -9 13 -6 8 3
20 1 28 -3 8 -5 19 -4 28 3 8 7 12 7 8 1 -4 -7 24 -17 76 -29 45 -11 85 -18
90 -17 4 1 7 -2 7 -6 0 -5 23 -15 50 -22 28 -7 50 -17 50 -21 0 -5 6 -6 14 -3
8 3 17 0 21 -5 3 -6 11 -9 16 -6 5 4 9 1 9 -5 0 -6 5 -8 10 -5 6 3 13 -1 16
-9 3 -9 11 -13 17 -9 5 3 16 -2 24 -12 9 -14 13 -15 13 -4 0 12 2 12 9 0 5 -8
15 -15 23 -17 7 -1 29 -11 48 -23 19 -12 43 -24 52 -27 10 -4 15 -10 12 -15
-3 -5 -2 -8 3 -7 16 4 53 -14 48 -23 -3 -5 2 -6 11 -2 12 4 15 3 10 -5 -5 -8
0 -12 14 -12 12 0 18 -4 15 -10 -3 -5 0 -10 9 -10 8 0 16 -3 18 -7 6 -15 68
-54 68 -43 0 5 -5 10 -11 10 -5 0 -7 5 -4 10 3 6 -1 10 -9 10 -9 0 -16 5 -16
10 0 6 -16 26 -35 44 -19 19 -35 39 -35 45 0 7 -7 14 -15 17 -8 3 -17 15 -20
25 -4 11 -17 31 -31 44 -13 13 -24 29 -24 35 0 5 -4 10 -10 10 -5 0 -10 7 -10
15 0 8 -4 15 -10 15 -5 0 -10 6 -10 13 0 6 -14 26 -30 44 -17 18 -30 36 -30
41 0 5 -9 17 -20 27 -11 10 -20 22 -20 27 0 5 -12 20 -27 34 -16 14 -21 22
-13 18 12 -6 13 -5 3 8 -7 8 -9 19 -5 23 4 5 1 5 -5 1 -9 -5 -13 0 -13 16 0
13 -5 29 -11 35 -7 7 -7 13 0 17 14 9 2 37 -13 30 -6 -3 -2 2 8 10 13 10 15
16 7 16 -10 0 -11 3 -2 13 6 8 8 16 5 20 -3 3 -1 14 5 25 7 13 7 23 -2 32 -9
10 -9 11 1 6 11 -6 17 5 13 27 0 4 4 7 11 7 6 0 8 3 5 7 -4 3 -1 13 6 21 10
13 9 14 -3 7 -11 -6 -10 -3 3 12 9 11 14 23 10 26 -3 4 -2 7 3 7 5 0 11 10 11
22 1 13 7 24 13 26 5 2 10 11 10 21 0 9 5 22 12 29 7 7 8 12 4 12 -5 0 -1 12
9 26 11 18 12 24 4 18 -11 -6 -12 -5 -3 7 7 8 15 29 19 47 4 20 11 30 18 26 9
-5 9 -4 1 5 -7 8 -9 25 -5 44 4 18 4 46 1 63 -4 17 -6 38 -4 47 1 9 -2 17 -7
17 -5 0 -9 9 -9 20 0 11 -4 20 -10 20 -5 0 -10 7 -10 15 0 8 9 15 21 15 13 0
18 4 13 12 -5 8 -2 9 9 5 9 -3 19 -2 22 4 4 5 11 7 16 4 5 -4 9 -1 9 6 0 7 3
10 6 6 3 -3 24 1 46 9 22 7 44 12 48 9 5 -3 10 -1 12 4 1 5 12 11 23 13 11 1
22 6 25 10 3 4 21 9 41 11 19 2 39 6 44 9 11 6 65 22 80 23 6 0 15 4 21 7 6 4
26 10 44 13 18 3 36 8 40 10 7 5 68 17 88 18 6 0 12 4 12 8 0 4 11 6 25 4 14
-1 25 1 25 5 0 5 13 7 30 6 18 -1 32 4 35 12 4 11 8 12 20 2 10 -8 15 -9 15
-2 0 6 12 10 28 8 15 -1 32 1 38 6 11 8 64 19 97 19 9 0 17 6 17 12 0 7 4 6
10 -3 5 -8 10 -10 10 -5 0 6 12 10 28 10 15 -1 33 4 41 9 12 9 13 8 6 -4 -8
-13 -6 -13 8 -1 9 7 24 11 32 7 8 -3 15 -1 15 4 0 5 11 7 24 4 14 -2 28 1 31
6 5 8 12 7 23 -2 12 -10 14 -10 8 0 -5 9 3 12 31 13 21 1 44 1 51 0 8 -1 20 3
28 10 10 8 14 9 14 0 0 -8 6 -9 18 -3 9 5 25 8 35 7 9 -2 17 2 17 8 0 8 3 8 8
2 9 -12 63 -14 55 -2 -3 5 3 7 13 6 11 -2 25 0 33 5 11 7 12 6 6 -5 -8 -12 -6
-12 8 0 14 11 17 11 17 0 0 -9 3 -10 8 -4 4 6 40 10 79 10 40 0 73 3 73 7 0 4
7 5 15 2 8 -4 22 -1 29 5 9 7 17 8 20 2 7 -11 25 -9 45 3 11 7 13 5 8 -10 -7
-18 -7 -18 8 0 11 14 15 16 15 5 0 -8 3 -10 8 -4 9 13 52 15 52 3 0 -5 6 -6
13 -1 20 12 37 12 37 0 0 -8 3 -9 8 -1 10 14 444 14 454 0 5 -7 8 -8 8 -1 0
12 68 13 87 2 6 -4 15 -3 18 3 5 8 12 7 23 -2 9 -7 13 -8 9 -2 -7 11 28 12 39
1 4 -4 14 -1 22 6 10 7 13 7 9 1 -5 -8 13 -12 56 -13 73 -2 94 -5 103 -14 4
-4 13 -2 20 4 9 7 19 7 32 0 13 -7 22 -7 30 1 7 7 12 8 12 2 0 -6 19 -11 43
-12 86 -4 112 -7 126 -16 11 -7 12 -6 6 5 -7 11 -6 12 6 2 12 -10 18 -10 29 0
10 10 11 9 5 -2 -6 -11 -2 -13 18 -9 14 3 31 1 38 -3 7 -4 21 -3 30 2 12 6 20
5 24 -1 4 -6 11 -8 16 -5 5 4 9 2 9 -2 0 -5 17 -9 38 -10 56 -2 96 -8 111 -18
10 -6 12 -4 6 6 -8 12 -6 12 8 0 9 -7 17 -10 17 -7 0 4 10 2 21 -5 17 -9 20
-8 14 2 -6 8 -4 10 5 4 7 -5 27 -10 44 -11 17 -2 42 -6 56 -9 14 -4 39 -8 55
-9 17 -1 41 -8 54 -15 22 -12 23 -12 17 4 -6 15 -4 16 10 4 17 -14 29 -17 81
-21 18 -2 33 -6 33 -9 0 -3 10 -5 23 -4 12 1 27 0 32 -4 11 -6 28 -10 63 -13
12 -1 22 -6 22 -10 0 -4 6 -5 14 -2 8 3 16 1 19 -3 3 -5 20 -8 36 -7 17 1 31
-1 31 -5 0 -6 16 -9 72 -14 13 -1 26 -5 29 -10 3 -4 22 -8 42 -9 20 -1 34 -5
30 -11 -3 -5 0 -7 8 -5 8 3 22 1 31 -4 10 -4 30 -10 45 -13 44 -6 57 -10 72
-19 10 -6 12 -5 7 2 -5 8 -2 10 8 6 9 -3 16 -9 16 -13 0 -4 11 -8 25 -9 47 -3
55 -5 55 -14 0 -5 4 -6 10 -3 6 3 16 3 23 -2 6 -4 21 -9 32 -10 11 -2 21 -7
23 -12 2 -5 11 -7 21 -4 10 3 22 0 25 -6 4 -5 13 -8 21 -4 8 3 15 0 15 -7 0
-6 4 -9 9 -5 5 3 12 1 15 -4 3 -5 15 -7 26 -4 12 3 20 0 20 -6 0 -7 5 -9 10
-6 6 3 10 0 10 -7 0 -9 3 -9 10 2 7 11 10 11 10 2 0 -7 4 -11 9 -8 4 3 16 -1
27 -8 10 -8 24 -12 31 -9 7 3 13 0 13 -6 0 -6 5 -11 11 -11 5 0 7 5 4 11 -6 9
32 -8 45 -21 5 -5 16 -8 52 -15 9 -2 25 -8 36 -14 11 -6 22 -7 26 -4 3 3 6 1
6 -6 0 -8 8 -11 20 -8 14 3 20 0 20 -10 0 -12 3 -13 14 -4 11 9 15 8 20 -5 4
-9 9 -14 13 -11 3 4 13 1 21 -6 13 -10 14 -9 7 3 -6 11 -3 10 11 -2 11 -10 35
-21 52 -24 18 -4 32 -10 32 -14 0 -4 7 -11 16 -14 8 -3 12 -2 9 4 -3 6 1 7 9
4 9 -3 16 -10 16 -15 0 -5 11 -9 24 -9 14 0 28 -4 31 -10 3 -5 15 -10 26 -10
10 0 19 -4 19 -10 0 -5 9 -10 20 -10 11 0 20 -5 20 -11 0 -5 4 -8 9 -4 5 3 13
0 16 -6 4 -5 13 -8 21 -5 8 3 14 1 14 -4 0 -6 8 -10 19 -10 10 0 24 -7 31 -15
7 -8 16 -13 20 -10 5 3 14 0 22 -7 7 -7 20 -14 28 -16 8 -2 16 -7 18 -12 2 -5
10 -6 18 -3 8 3 14 0 14 -7 0 -6 4 -9 9 -5 5 3 16 -2 24 -10 9 -8 23 -15 31
-15 9 0 16 -4 16 -10 0 -5 7 -10 15 -10 17 0 49 -16 79 -40 17 -13 19 -13 11
0 -6 10 -2 9 12 -3 12 -10 28 -19 36 -21 8 -1 27 -10 43 -21 16 -11 35 -20 42
-21 8 -2 21 -9 30 -16 10 -8 31 -20 47 -28 17 -8 38 -20 47 -28 9 -8 22 -11
27 -7 6 3 11 2 11 -4 0 -6 19 -20 43 -32 23 -12 45 -26 48 -32 4 -5 12 -6 19
-2 8 5 11 4 6 -3 -5 -9 32 -29 42 -23 2 1 12 -8 23 -20 10 -12 19 -19 19 -16
0 4 16 -5 36 -18 20 -14 44 -25 52 -25 8 0 12 -3 9 -6 -4 -4 14 -17 39 -30 25
-13 54 -33 64 -44 10 -12 21 -21 24 -21 19 3 29 0 23 -5 -4 -4 11 -16 33 -28
22 -12 48 -29 59 -38 11 -9 22 -14 25 -11 3 4 6 1 6 -5 0 -7 4 -12 10 -12 9 0
35 -19 65 -47 8 -7 18 -13 24 -13 6 0 11 -4 11 -10 0 -5 5 -10 10 -10 11 0 24
-9 59 -41 10 -9 32 -25 50 -35 17 -10 31 -21 31 -25 0 -4 9 -9 21 -12 13 -4
18 -10 13 -18 -4 -8 -3 -10 5 -5 6 4 14 0 17 -8 3 -9 13 -16 20 -16 8 0 17 -7
20 -15 4 -8 10 -12 15 -9 5 3 9 1 9 -4 0 -5 26 -29 58 -53 31 -24 62 -48 69
-54 68 -62 128 -109 136 -107 5 2 7 -4 4 -13 -5 -10 0 -15 13 -15 11 0 20 -7
20 -15 0 -8 6 -15 14 -15 7 0 21 -11 32 -24 10 -14 21 -23 26 -20 4 3 8 0 8
-6 0 -6 19 -27 42 -48 56 -51 296 -290 334 -335 17 -20 34 -33 38 -30 3 4 6 1
6 -5 0 -6 11 -23 25 -37 14 -14 23 -25 21 -25 -3 0 8 -13 24 -28 16 -16 27
-32 23 -35 -3 -4 0 -7 9 -7 8 0 21 -11 28 -25 7 -14 17 -25 22 -25 4 0 8 -7 8
-16 0 -8 4 -12 10 -9 5 3 10 0 10 -7 0 -7 9 -19 20 -26 12 -7 18 -17 15 -22
-3 -6 0 -10 8 -10 7 0 20 -12 28 -27 8 -16 22 -34 32 -41 9 -7 15 -18 12 -23
-4 -5 1 -9 9 -9 14 0 20 -12 17 -32 0 -5 6 -8 14 -8 8 0 15 -5 15 -10 0 -6 14
-24 30 -42 17 -17 30 -34 30 -39 0 -4 6 -14 14 -21 7 -8 20 -27 29 -44 8 -16
26 -41 39 -54 13 -14 30 -37 37 -52 8 -16 18 -28 23 -28 4 0 8 -7 8 -15 0 -8
3 -15 8 -15 9 0 46 -62 44 -72 -1 -5 3 -8 8 -8 6 0 18 -16 27 -35 9 -19 20
-35 24 -35 4 0 10 -11 13 -25 4 -14 11 -25 17 -25 6 0 7 -4 4 -10 -3 -5 -2
-10 3 -10 5 0 15 -13 22 -30 7 -16 16 -30 20 -30 3 0 17 -22 30 -50 13 -27 26
-50 30 -50 3 0 12 -16 20 -35 8 -20 22 -43 32 -52 10 -9 18 -24 18 -34 0 -10
12 -32 28 -50 15 -18 21 -30 15 -26 -9 6 -11 3 -7 -7 3 -9 10 -16 16 -16 5 0
6 -4 3 -10 -3 -5 -1 -10 6 -10 7 0 9 -3 6 -6 -4 -4 2 -19 13 -34 11 -16 20
-33 20 -39 0 -6 5 -11 10 -11 6 0 10 -9 10 -19 0 -11 5 -23 10 -26 6 -3 10
-15 10 -26 0 -10 3 -19 8 -19 4 0 12 -11 19 -25 8 -19 8 -24 0 -19 -7 3 -4 -1
5 -9 10 -8 15 -17 11 -20 -3 -4 -2 -7 4 -7 9 0 18 -18 28 -57 2 -7 10 -20 19
-29 19 -19 21 -28 4 -19 -7 4 -5 0 4 -8 10 -8 15 -17 11 -20 -3 -4 -1 -7 6 -7
7 0 10 -4 7 -8 -3 -5 3 -18 14 -29 10 -12 16 -23 13 -27 -3 -3 0 -12 7 -21 7
-8 9 -15 4 -15 -4 0 1 -6 12 -14 10 -8 16 -18 12 -21 -4 -4 0 -14 8 -22 8 -8
12 -19 9 -24 -4 -5 -1 -9 4 -9 6 0 11 -7 11 -15 0 -8 5 -15 11 -15 5 0 7 -4 4
-10 -3 -5 -1 -10 5 -10 6 0 9 -4 6 -9 -3 -5 1 -14 10 -21 8 -7 13 -19 10 -27
-3 -7 -1 -13 4 -13 6 0 10 -7 10 -15 0 -8 5 -15 10 -15 6 0 10 -9 10 -20 0
-11 5 -20 10 -20 6 0 10 -9 10 -20 0 -11 4 -20 8 -20 5 0 14 -16 22 -35 8 -19
17 -35 22 -35 4 0 8 -8 8 -19 0 -10 7 -24 15 -31 8 -7 12 -16 10 -21 -3 -4 3
-12 12 -18 10 -6 14 -11 8 -11 -7 0 -7 -3 0 -8 6 -4 21 -27 34 -52 14 -25 27
-47 30 -50 3 -3 12 -15 19 -27 6 -13 18 -33 25 -45 6 -13 18 -27 25 -31 7 -5
10 -12 7 -18 -4 -5 -1 -9 4 -9 6 0 11 -5 11 -11 0 -6 6 -16 13 -23 6 -8 19
-24 27 -36 8 -13 25 -35 38 -50 12 -15 22 -30 22 -33 0 -5 43 -57 77 -94 12
-13 20 -23 17 -23 -3 0 6 -10 19 -22 13 -13 32 -35 42 -50 9 -16 24 -28 33
-28 8 0 13 -3 9 -6 -3 -3 10 -20 30 -37 19 -18 52 -48 73 -67 70 -66 98 -89
104 -83 3 3 8 -2 12 -11 3 -9 13 -16 21 -16 8 0 11 -4 8 -10 -3 -5 1 -10 9
-10 9 0 16 -5 16 -11 0 -5 5 -7 10 -4 6 3 10 1 10 -6 0 -7 3 -10 6 -6 3 3 15
-2 25 -12 11 -10 32 -24 47 -32 15 -8 32 -21 39 -29 9 -11 12 -12 13 -2 0 7 5
10 12 6 7 -5 8 -3 2 7 -9 14 -14 34 -16 57 -1 6 -4 12 -7 12 -4 0 -8 12 -9 27
-1 15 -6 29 -10 32 -4 3 -7 13 -7 21 1 8 -6 26 -15 40 -9 15 -10 21 -3 17 9
-6 11 -3 7 7 -3 9 -10 16 -14 16 -5 0 -7 9 -5 20 2 11 0 20 -5 20 -4 0 -11 7
-14 16 -4 10 -2 13 7 8 8 -5 8 -2 -2 9 -7 9 -11 24 -7 32 3 9 2 13 -4 10 -6
-3 -10 3 -10 14 0 12 -4 21 -8 21 -4 0 -9 8 -10 18 -4 45 -9 64 -18 70 -5 4
-9 14 -9 22 0 8 -3 18 -7 21 -4 3 -9 17 -10 32 -1 15 -6 27 -10 27 -4 0 -8 10
-8 23 0 13 -4 27 -8 33 -11 12 -67 167 -64 177 1 4 -3 7 -9 7 -6 0 -9 7 -5 15
3 8 1 15 -4 15 -6 0 -10 8 -10 19 0 10 -7 24 -15 31 -13 11 -13 15 -3 21 11 7
11 9 0 9 -7 0 -10 5 -7 10 3 6 -1 13 -9 16 -9 3 -14 10 -11 14 8 12 -6 41 -16
34 -5 -3 -6 3 -2 12 4 10 0 20 -10 25 -9 6 -13 17 -10 29 3 11 0 20 -6 20 -6
0 -11 9 -11 19 0 11 -5 23 -11 27 -6 3 -9 15 -6 25 3 11 2 17 -3 14 -10 -6
-22 24 -14 36 3 5 1 9 -5 9 -8 0 -27 40 -22 48 1 2 -8 12 -21 23 -13 11 -17
18 -10 14 17 -9 15 10 -3 28 -8 8 -11 17 -8 21 4 3 1 6 -6 6 -7 0 -9 5 -6 10
3 6 2 10 -4 10 -6 0 -8 7 -5 15 4 8 -1 17 -9 21 -9 3 -13 12 -10 20 3 8 0 14
-6 14 -6 0 -11 12 -11 26 0 14 -3 23 -8 20 -4 -2 -19 22 -32 55 -14 32 -28 59
-32 59 -5 0 -7 3 -6 8 0 4 -7 25 -17 47 -9 22 -17 41 -16 43 1 1 -5 10 -14 18
-8 9 -12 20 -9 26 4 6 2 8 -4 4 -10 -6 -28 30 -24 47 1 4 -3 7 -8 7 -6 0 -10
7 -10 15 0 8 -6 15 -12 15 -10 0 -10 2 0 9 11 7 11 9 0 13 -7 3 -26 32 -43 64
-16 33 -33 61 -37 62 -5 2 -8 10 -8 18 0 8 -5 14 -11 14 -5 0 -8 4 -4 9 3 5 0
16 -7 23 -7 8 -20 27 -29 43 -46 85 -55 100 -67 113 -7 7 -10 17 -8 21 3 4 -4
14 -15 21 -10 8 -19 22 -19 32 0 10 -4 18 -10 18 -5 0 -10 5 -10 11 0 6 -7 17
-15 26 -8 8 -13 19 -10 24 4 5 1 9 -4 9 -6 0 -11 7 -11 15 0 8 -7 15 -15 15
-8 0 -14 4 -13 8 2 4 -15 36 -37 71 -22 35 -39 68 -37 73 1 5 -2 7 -8 3 -5 -3
-10 1 -10 9 0 9 -5 16 -11 16 -5 0 -8 4 -5 9 3 5 -1 11 -9 15 -8 3 -15 12 -15
21 0 8 -4 15 -10 15 -5 0 -10 7 -10 15 0 8 -4 15 -10 15 -5 0 -10 5 -10 10 0
11 -10 24 -42 61 -10 10 -18 23 -18 28 0 4 -11 20 -25 35 -14 15 -25 31 -25
37 0 12 -13 28 -60 76 -19 20 -29 33 -22 29 22 -13 13 3 -19 34 -18 16 -28 30
-24 30 5 0 0 7 -11 16 -10 8 -12 12 -4 8 8 -4 1 6 -15 22 -17 16 -37 41 -44
56 -8 15 -18 25 -23 22 -4 -3 -8 2 -8 10 0 8 -8 21 -17 28 -10 7 -24 25 -32
41 -8 15 -21 27 -28 27 -8 0 -12 4 -9 8 3 5 -4 15 -15 22 -10 8 -19 20 -19 26
0 7 -12 22 -26 33 -14 11 -23 25 -20 30 4 5 -3 12 -14 16 -11 3 -20 10 -20 14
0 5 -13 22 -30 39 -16 18 -30 37 -30 42 0 6 -5 8 -12 4 -8 -5 -9 -2 -4 12 4
10 4 15 0 12 -7 -7 -64 51 -64 65 0 4 -4 6 -9 3 -4 -3 -13 6 -19 19 -7 14 -16
25 -22 25 -5 0 -10 7 -10 15 0 8 -7 15 -15 15 -8 0 -15 3 -15 8 0 13 -100 117
-111 114 -6 -1 -8 1 -5 6 6 10 -91 112 -107 112 -5 0 -7 3 -4 7 4 3 -5 15 -20
25 -16 10 -25 18 -21 18 8 0 -39 47 -77 79 -11 9 -35 33 -52 54 -18 21 -33 34
-33 30 0 -4 -15 10 -34 30 -18 20 -38 37 -44 37 -6 0 -14 9 -17 21 -4 11 -9
18 -11 16 -3 -3 -25 15 -50 39 -24 24 -47 44 -50 44 -2 0 -15 10 -28 23 -13
12 -47 42 -76 67 -29 25 -59 51 -66 58 -7 6 -18 12 -24 12 -6 0 -8 5 -5 10 3
6 -1 10 -10 10 -10 0 -13 5 -9 12 4 6 3 8 -3 5 -13 -8 -64 38 -55 49 4 4 2 4
-4 1 -6 -3 -25 7 -43 23 -18 17 -36 30 -41 30 -5 0 -14 8 -19 18 -6 9 -11 14
-11 9 0 -4 -14 6 -31 23 -17 16 -44 35 -59 42 -16 7 -26 16 -24 20 3 4 -2 8
-10 8 -9 0 -16 5 -16 10 0 6 -6 10 -13 10 -7 0 -19 9 -27 20 -8 11 -20 20 -26
20 -7 0 -15 7 -18 16 -4 9 -9 14 -13 11 -3 -4 -14 3 -24 14 -9 11 -20 20 -23
20 -19 -3 -29 0 -23 5 4 4 -13 17 -36 30 -23 12 -41 28 -39 34 1 6 -2 9 -7 6
-5 -4 -16 0 -24 8 -8 8 -17 12 -21 9 -3 -3 -8 2 -12 11 -3 9 -12 16 -20 16 -8
0 -14 5 -14 11 0 5 -4 7 -10 4 -5 -3 -10 -3 -10 2 0 9 -62 47 -72 45 -5 -1 -8
2 -8 7 0 5 -13 14 -30 21 -16 7 -30 16 -30 20 0 4 -13 13 -30 20 -16 7 -30 17
-30 22 0 5 -4 6 -10 3 -5 -3 -10 -2 -10 2 0 8 -29 26 -62 39 -10 3 -18 11 -18
16 0 5 -4 6 -10 3 -5 -3 -10 -1 -10 5 0 6 -4 8 -10 5 -5 -3 -10 -1 -10 4 0 6
-9 11 -21 11 -11 0 -18 4 -15 8 3 5 -10 15 -29 22 -19 8 -35 18 -35 22 0 5 -4
7 -9 3 -5 -3 -12 -1 -16 5 -3 5 -26 19 -51 30 -24 11 -44 25 -44 31 0 6 -4 8
-9 5 -5 -3 -25 6 -46 19 -20 14 -41 23 -46 20 -5 -4 -9 -2 -9 4 0 5 -16 15
-35 22 -19 7 -35 17 -35 22 0 4 -4 6 -9 2 -5 -3 -12 -1 -16 5 -4 6 -11 8 -16
5 -5 -4 -9 -1 -9 4 0 6 -7 11 -15 11 -9 0 -33 11 -54 24 -21 14 -42 22 -45 19
-3 -4 -6 -1 -6 6 0 8 -7 11 -15 7 -8 -3 -15 -1 -15 5 0 6 -4 7 -10 4 -5 -3
-10 -1 -10 5 0 6 -4 8 -10 5 -5 -3 -10 -1 -10 5 0 6 -4 8 -10 5 -5 -3 -10 -1
-10 5 0 6 -4 8 -10 5 -5 -3 -10 -1 -10 6 0 7 -3 9 -7 6 -3 -4 -13 -1 -21 6
-13 10 -14 9 -7 -3 4 -8 -3 -5 -16 6 -13 12 -30 19 -36 17 -7 -3 -13 0 -13 6
0 6 -9 11 -20 11 -11 0 -20 5 -20 12 0 6 -3 9 -6 5 -3 -3 -27 5 -52 18 -26 13
-50 21 -54 19 -4 -3 -8 0 -8 6 0 7 -7 10 -15 6 -8 -3 -21 2 -30 10 -8 8 -19
12 -25 9 -6 -3 -13 0 -15 8 -3 7 -16 13 -28 12 -27 -2 -48 5 -43 14 3 4 -3 7
-12 8 -29 2 -47 8 -53 16 -3 4 -16 9 -27 10 -12 1 -22 5 -22 10 0 4 -4 6 -9 2
-5 -3 -12 -1 -16 5 -4 6 -11 8 -16 5 -5 -4 -9 -1 -9 5 0 6 -4 9 -9 5 -5 -3
-12 -1 -16 5 -4 6 -11 8 -16 5 -5 -4 -16 0 -24 8 -8 9 -23 13 -34 10 -10 -3
-22 0 -25 6 -4 6 -18 11 -31 11 -13 0 -27 5 -30 11 -4 6 -13 8 -21 5 -8 -3
-14 -1 -14 5 0 6 -7 9 -15 5 -8 -3 -15 -1 -15 4 0 6 -13 10 -30 10 -16 0 -30
5 -30 10 0 6 -14 10 -31 10 -16 0 -28 4 -25 8 2 4 -9 9 -27 10 -17 2 -37 8
-46 15 -12 10 -13 9 -7 -2 7 -10 3 -10 -15 2 -13 8 -34 14 -46 12 -13 -1 -23
2 -23 6 0 7 -68 24 -82 21 -5 -1 -8 4 -8 10 0 9 -4 8 -10 -2 -7 -11 -10 -11
-10 -2 0 7 -4 11 -9 7 -5 -3 -12 -1 -16 4 -3 6 -12 8 -20 4 -8 -3 -15 -1 -15
4 0 5 -10 9 -22 8 -13 -1 -25 2 -28 6 -3 4 -23 10 -45 13 -22 3 -58 10 -79 15
-22 5 -43 8 -47 5 -4 -2 -9 0 -11 5 -1 6 -22 11 -45 12 -24 2 -43 7 -43 12 0
4 -10 8 -22 7 -40 -4 -50 -1 -42 13 5 8 2 8 -9 -2 -9 -7 -17 -9 -17 -4 0 5 -8
9 -17 10 -10 1 -31 4 -48 8 -16 3 -43 8 -60 10 -39 5 -77 13 -82 19 -3 3 -16
1 -30 -5 -15 -5 -22 -5 -18 0 3 5 1 12 -5 16 -5 3 -10 1 -10 -5 0 -7 -5 -8
-12 -3 -7 4 -24 9 -38 9 -14 1 -25 3 -25 4 0 2 -17 5 -80 13 -11 1 -26 6 -32
10 -8 5 -13 3 -13 -5 0 -8 -3 -9 -8 -3 -6 9 -42 16 -107 19 -11 1 -25 4 -30 8
-6 4 -17 3 -25 -2 -9 -5 -19 -5 -27 2 -7 6 -24 8 -38 6 -14 -3 -25 -2 -25 1 0
4 -12 6 -27 5 -16 -1 -34 3 -40 9 -9 6 -13 6 -13 -2 0 -7 -5 -9 -10 -6 -6 4
-7 11 -4 17 5 7 1 7 -10 1 -10 -5 -36 -7 -59 -4 -23 4 -63 6 -89 5 -27 0 -48
3 -48 6 0 9 -32 6 -48 -4 -6 -4 -12 -3 -12 2 0 4 -34 9 -77 10 -43 1 -83 8
-92 15 -10 8 -13 8 -8 0 5 -8 -4 -11 -33 -10 -22 1 -40 6 -40 12 0 5 -5 3 -10
-5 -8 -12 -10 -12 -10 -1 0 11 -3 11 -15 1 -12 -10 -15 -10 -15 0 0 10 -3 10
-15 0 -12 -10 -15 -10 -15 0 0 9 -4 9 -17 -1 -15 -12 -16 -12 -8 1 8 13 7 13
-8 1 -13 -10 -17 -10 -17 -1 0 10 -3 10 -15 0 -12 -10 -15 -10 -15 1 0 11 -2
11 -10 -1 -8 -12 -10 -12 -10 -1 0 11 -3 11 -15 1 -12 -10 -15 -10 -15 0 0 10
-3 10 -14 1 -8 -7 -17 -8 -20 -3 -6 10 -86 10 -102 0 -6 -4 -14 -4 -18 -1 -12
12 -40 12 -48 0 -6 -9 -8 -9 -8 0 0 12 -17 12 -37 0 -8 -5 -13 -3 -13 4 0 8
-4 8 -15 -1 -12 -10 -15 -10 -15 1 0 11 -2 11 -10 -1 -7 -11 -10 -11 -10 -2 0
9 -5 10 -18 3 -13 -7 -23 -6 -30 1 -9 9 -12 9 -12 -1 0 -10 -3 -11 -13 -2 -8
6 -17 8 -20 5 -12 -12 -62 -13 -76 -1 -12 10 -13 9 -7 -2 6 -9 5 -12 -5 -9 -8
3 -24 1 -37 -3 -13 -5 -21 -5 -18 0 3 5 -1 12 -10 15 -8 3 -13 2 -10 -3 8 -12
-86 -20 -101 -8 -9 6 -13 5 -13 -3 0 -7 -7 -10 -15 -7 -8 4 -16 3 -19 -1 -2
-4 -36 -7 -75 -7 -39 0 -71 -2 -71 -6 0 -3 -14 -5 -32 -3 -17 2 -35 -1 -38 -7
-5 -7 -13 -5 -24 6 -15 15 -17 15 -22 0 -6 -13 -8 -14 -15 -3 -5 7 -9 8 -9 2
0 -10 -31 -14 -117 -17 -17 -1 -30 -4 -28 -8 3 -3 -12 -6 -33 -6 -61 -1 -97
-7 -104 -18 -5 -6 -8 -5 -8 3 0 8 -5 10 -12 5 -7 -4 -33 -9 -58 -11 -24 -1
-50 -8 -57 -14 -9 -7 -13 -7 -13 1 0 8 -6 9 -17 2 -10 -5 -21 -9 -25 -10 -5
-1 -9 -1 -10 -2 -2 -1 -16 -2 -33 -3 -16 -1 -34 -4 -40 -8 -5 -3 -18 -4 -27
-3 -10 2 -18 0 -18 -4 0 -4 -10 -7 -22 -6 -13 1 -27 0 -33 -3 -5 -3 -23 -7
-40 -9 -51 -6 -64 -9 -71 -16 -4 -4 -13 -2 -21 4 -10 9 -13 8 -13 -3 0 -11 -8
-14 -27 -12 -15 1 -32 -1 -38 -6 -5 -4 -21 -10 -35 -12 -14 -1 -28 -7 -32 -13
-5 -6 -8 -5 -8 4 0 9 -4 10 -12 4 -7 -6 -25 -10 -40 -9 -14 1 -25 -1 -22 -5 2
-4 -3 -10 -12 -13 -10 -4 -13 -2 -8 7 5 9 4 9 -7 0 -7 -7 -26 -13 -41 -13 -15
0 -28 -3 -28 -8 0 -4 -13 -8 -30 -8 -16 -1 -37 -5 -47 -10 -17 -7 -40 -12 -70
-16 -7 -1 -13 -5 -13 -9 0 -5 -6 -6 -14 -3 -8 3 -17 1 -20 -5 -4 -6 -13 -8
-20 -5 -8 3 -17 1 -20 -5 -4 -6 -13 -8 -21 -4 -8 3 -15 1 -15 -5 0 -6 -8 -9
-17 -8 -10 2 -27 -3 -38 -9 -11 -7 -28 -11 -37 -10 -10 2 -18 0 -18 -4 0 -4
-7 -8 -15 -9 -8 -1 -22 -3 -30 -4 -8 -1 -15 -5 -15 -10 0 -5 -9 -4 -20 2 -13
7 -20 7 -20 1 0 -6 -7 -7 -17 -4 -9 4 -14 2 -11 -3 9 -14 -77 -10 -106 6 -14
7 -28 21 -31 31 -3 10 -15 21 -26 24 -10 4 -19 13 -19 21 0 8 -7 14 -15 14 -8
0 -19 9 -25 20 -6 11 -17 20 -25 20 -8 0 -14 3 -13 8 3 7 -72 85 -88 90 -21 8
-39 21 -36 26 1 3 0 6 -3 6 -3 0 -16 10 -29 22 -32 31 -63 55 -111 86 -22 15
-42 30 -45 33 -15 20 -144 98 -153 92 -5 -3 -7 -1 -3 5 3 6 -3 13 -14 17 -11
3 -26 12 -33 18 -18 17 -69 47 -89 54 -10 3 -18 10 -18 15 0 5 -4 7 -9 3 -5
-3 -16 1 -24 9 -8 8 -17 12 -21 9 -3 -4 -6 -2 -6 4 0 6 -14 16 -32 22 -17 6
-28 8 -25 4 4 -3 -1 -15 -10 -26 -17 -20 -17 -20 2 -14 18 7 19 6 3 -6 -10 -8
-15 -17 -11 -21 4 -3 -2 -12 -12 -20 -14 -10 -15 -15 -5 -21 9 -6 11 -4 5 5
-5 9 -4 11 4 6 9 -6 8 -14 -4 -32 -11 -18 -12 -24 -3 -24 9 0 9 -3 2 -8 -6 -4
-11 -22 -12 -39 -1 -18 -2 -45 -3 -60 -1 -16 -6 -34 -13 -42 -9 -12 -8 -13 2
-7 10 6 13 2 10 -15 -2 -13 -7 -27 -13 -31 -6 -5 -5 -8 4 -8 11 0 11 -3 0 -16
-10 -13 -10 -17 0 -24 11 -6 11 -9 0 -13 -12 -5 -12 -6 0 -6 11 -1 11 -4 0
-18 -12 -15 -12 -16 1 -8 12 7 13 6 4 -6 -6 -8 -10 -48 -10 -91 1 -42 -3 -74
-7 -71 -4 2 -6 -7 -3 -21 3 -14 1 -28 -3 -30 -4 -3 -6 -21 -6 -40 1 -20 -1
-36 -5 -36 -4 0 -7 -7 -8 -15 -1 -8 -3 -22 -4 -30 -1 -8 -5 -15 -10 -15 -5 0
-7 -4 -3 -9 10 -17 -136 -150 -157 -143 -4 1 -8 -3 -8 -9 0 -5 -4 -7 -10 -4
-5 3 -10 2 -10 -3 0 -9 -37 -25 -52 -23 -5 1 -8 -4 -8 -10 0 -6 -7 -9 -15 -5
-8 3 -15 1 -15 -5 0 -6 -4 -7 -10 -4 -5 3 -10 2 -10 -4 0 -5 -11 -8 -25 -7
-14 2 -22 -1 -18 -7 4 -6 -2 -8 -15 -5 -12 4 -22 2 -22 -2 0 -5 -11 -7 -25 -5
-14 1 -25 -2 -25 -7 0 -4 -11 -6 -25 -4 -14 3 -25 1 -25 -4 0 -4 -19 -6 -42
-4 -26 2 -45 -1 -50 -9 -5 -8 -8 -8 -8 -1 0 7 -21 11 -60 10 -33 -2 -65 1 -72
5 -7 4 -18 4 -24 -2 -7 -6 -16 -4 -24 6 -9 11 -17 12 -30 5 -13 -7 -21 -7 -25
1 -4 6 -13 8 -20 5 -8 -3 -19 1 -25 9 -6 8 -18 11 -25 8 -8 -2 -28 2 -46 11
-17 9 -35 13 -39 11 -5 -3 -10 -2 -12 2 -1 5 -21 17 -43 28 -22 11 -49 28 -59
37 -10 10 -23 15 -28 12 -4 -3 -8 2 -8 10 0 9 -9 16 -20 16 -11 0 -19 3 -18 8
2 4 -10 19 -25 34 -15 15 -27 24 -27 20 0 -3 -13 8 -30 26 -16 18 -30 30 -30
26 0 -4 -13 6 -29 22 -15 16 -45 43 -66 59 -20 17 -49 42 -65 58 -15 15 -33
27 -39 27 -7 0 -9 5 -6 10 3 6 -1 10 -9 10 -8 0 -18 9 -21 20 -4 11 -10 18
-15 15 -4 -3 -26 14 -49 36 -23 23 -41 39 -41 36 0 -4 -17 11 -39 33 -21 21
-41 36 -45 33 -3 -4 -6 1 -6 10 0 10 -5 17 -10 17 -6 0 -21 10 -34 23 -35 33
-78 70 -106 90 -13 9 -20 17 -15 17 5 0 -7 11 -28 25 -20 14 -37 30 -37 35 0
6 -5 10 -11 10 -6 0 -24 14 -39 30 -15 17 -33 30 -38 30 -6 0 -14 9 -17 21 -4
11 -9 18 -12 15 -3 -2 -23 13 -44 34 -21 21 -39 36 -39 33 0 -3 -13 9 -29 26
-16 17 -32 31 -35 31 -10 0 -51 44 -48 53 1 4 -1 6 -6 5 -4 -2 -18 7 -32 20
-21 20 -58 30 -61 17z"/>
<path d="M9615 14724 c-11 -8 -25 -12 -32 -10 -7 3 -13 1 -13 -4 0 -6 -7 -10
-15 -10 -8 0 -15 -2 -15 -4 0 -2 -3 -13 -6 -23 -5 -15 -4 -15 5 -3 6 8 11 10
11 4 0 -6 10 -11 23 -11 59 -1 68 -3 61 -15 -6 -10 -5 -10 7 -1 9 7 20 8 29 3
8 -5 18 -6 22 -3 5 2 15 -1 23 -7 12 -10 15 -10 15 0 0 10 3 10 15 0 8 -6 19
-9 24 -6 5 4 12 2 16 -4 3 -5 11 -10 16 -10 6 0 8 4 4 10 -3 5 7 3 22 -5 15
-8 36 -12 46 -9 9 3 17 1 17 -3 0 -5 10 -10 23 -11 38 -3 61 -8 82 -18 11 -6
30 -9 43 -8 12 0 22 -3 22 -9 0 -5 11 -7 24 -5 16 3 27 0 31 -10 3 -8 12 -11
20 -8 8 3 15 1 15 -5 0 -6 5 -7 10 -4 6 4 17 1 25 -5 8 -7 24 -10 35 -7 10 3
18 0 17 -5 -1 -6 5 -12 13 -14 8 -2 22 -5 30 -6 8 -2 30 -11 48 -20 18 -9 29
-12 26 -6 -4 5 5 3 19 -6 13 -9 35 -19 48 -21 12 -3 25 -9 28 -14 3 -4 21 -12
39 -16 18 -3 30 -11 27 -15 -3 -5 4 -7 15 -5 11 2 20 1 20 -4 0 -4 16 -13 35
-20 19 -7 35 -17 35 -22 0 -6 5 -7 11 -4 5 4 19 -1 30 -11 10 -9 19 -13 19 -9
0 5 7 0 16 -11 8 -10 12 -13 9 -6 -6 11 -3 11 14 0 12 -7 21 -16 21 -21 0 -4
5 -5 10 -2 6 4 17 1 26 -5 20 -17 75 -49 97 -56 9 -4 17 -10 17 -15 0 -5 9 -9
20 -9 11 0 20 -4 20 -8 0 -5 12 -15 28 -23 15 -8 36 -22 46 -31 11 -10 26 -18
33 -18 7 0 13 -3 13 -8 0 -4 16 -16 35 -26 19 -10 32 -23 29 -28 -3 -5 -2 -7
3 -6 10 3 63 -31 86 -56 9 -10 17 -15 17 -11 0 4 8 -2 19 -13 10 -12 21 -19
25 -15 3 3 6 -1 6 -11 0 -9 4 -15 9 -11 6 3 14 -3 20 -12 6 -10 11 -15 11 -11
0 4 24 -17 54 -47 30 -29 57 -51 60 -48 3 4 6 -1 6 -11 0 -9 5 -14 10 -11 6 3
10 -1 10 -10 0 -9 5 -13 10 -10 6 3 10 0 10 -7 0 -7 16 -28 35 -46 20 -17 33
-32 29 -32 -4 0 2 -8 12 -18 19 -18 39 -45 51 -72 4 -8 19 -32 35 -54 15 -21
25 -42 22 -47 -3 -5 0 -9 5 -9 6 0 11 -6 11 -14 0 -8 7 -22 16 -30 8 -9 12
-16 8 -16 -3 0 -2 -6 4 -13 6 -7 12 -25 14 -39 2 -15 8 -31 13 -35 4 -5 5 -1
0 7 -5 9 -4 12 1 7 4 -4 9 -20 10 -35 1 -15 2 -27 3 -27 3 0 12 -36 13 -52 1
-7 6 -13 12 -13 6 0 4 -5 -4 -10 -10 -6 -11 -10 -2 -10 8 0 12 -16 12 -45 0
-29 4 -45 13 -45 8 0 7 -4 -3 -10 -8 -5 -10 -10 -4 -10 12 0 14 -326 2 -345
-3 -6 -7 -30 -9 -55 -2 -25 -8 -48 -14 -52 -6 -5 -5 -8 4 -8 11 0 10 -4 -5
-16 -10 -8 -13 -12 -5 -8 10 5 11 1 5 -17 -4 -13 -7 -31 -7 -39 0 -8 -5 -21
-11 -29 -9 -12 -8 -13 3 -6 11 6 12 5 5 -6 -11 -18 -14 -39 -5 -39 4 0 8 -10
8 -22 1 -13 7 -24 13 -26 5 -2 10 -13 10 -24 0 -11 8 -22 18 -25 10 -2 26 -17
37 -33 11 -16 23 -26 27 -24 4 3 16 -3 26 -13 34 -33 118 -93 128 -93 4 0 15
-9 25 -21 9 -11 21 -21 26 -21 15 -1 53 -21 53 -28 0 -3 16 -12 35 -19 19 -7
33 -16 31 -20 -3 -4 5 -8 16 -8 12 -1 25 -8 29 -15 5 -7 9 -9 9 -4 0 5 12 -1
27 -15 17 -15 22 -17 13 -5 -14 18 -14 19 7 8 12 -7 25 -17 28 -22 4 -6 11 -8
16 -5 5 4 9 1 9 -5 0 -7 7 -9 15 -6 9 3 18 -1 22 -10 3 -8 11 -13 19 -10 7 3
14 1 16 -4 2 -5 10 -10 18 -12 8 -2 18 -7 21 -11 3 -4 16 -9 27 -10 12 -1 22
-5 22 -9 0 -4 7 -8 15 -8 8 0 15 -6 15 -12 0 -9 4 -8 10 2 6 10 10 11 10 3 0
-7 8 -13 18 -13 10 0 28 -7 40 -16 12 -8 22 -13 22 -9 0 3 17 -3 38 -14 39
-20 43 -21 68 -21 8 0 13 -4 10 -9 -4 -5 2 -8 11 -7 10 2 25 -1 33 -5 33 -19
118 -47 124 -42 3 4 6 2 6 -4 0 -6 7 -14 16 -17 10 -4 13 -2 9 7 -4 6 -1 5 7
-3 14 -16 31 -23 61 -24 9 0 17 -4 17 -8 0 -4 9 -8 20 -8 11 0 20 -5 20 -11 0
-6 7 -9 15 -5 8 3 15 1 15 -4 0 -6 3 -9 8 -9 4 1 10 0 15 -1 4 -1 10 -3 15 -4
4 -1 22 -10 40 -20 19 -9 40 -15 47 -12 7 2 21 -4 31 -15 9 -10 25 -19 36 -19
10 0 18 -4 18 -10 0 -5 8 -10 18 -10 10 0 24 -6 31 -12 11 -11 13 -10 7 2 -4
9 -1 7 7 -3 8 -10 24 -19 34 -21 11 -3 57 -23 102 -45 44 -23 81 -38 81 -34 0
5 5 0 11 -10 6 -9 14 -15 20 -12 5 4 12 -1 15 -9 3 -9 17 -16 30 -16 13 0 24
-4 24 -9 0 -5 11 -12 25 -15 14 -4 23 -11 20 -16 -3 -6 1 -7 9 -4 9 3 16 1 16
-5 0 -6 9 -11 21 -11 11 0 17 -4 14 -10 -3 -5 3 -10 14 -10 12 0 21 -4 21 -10
0 -5 7 -10 15 -10 8 0 15 -5 15 -12 0 -6 3 -9 6 -5 4 3 21 -5 39 -18 17 -14
37 -25 43 -25 7 0 12 -4 12 -10 0 -5 7 -10 15 -10 8 0 15 -4 15 -10 0 -5 6
-10 14 -10 8 0 16 -3 18 -8 2 -4 29 -24 60 -45 31 -20 64 -44 72 -53 8 -8 19
-16 23 -17 4 -1 7 -5 6 -9 -2 -5 5 -8 15 -8 10 0 24 -9 32 -20 8 -11 23 -20
33 -20 10 0 16 -4 13 -9 -4 -5 10 -19 29 -31 19 -12 33 -26 29 -31 -3 -5 -1
-8 4 -7 5 2 31 -15 58 -37 26 -22 53 -39 58 -37 6 2 8 1 4 -3 -6 -6 26 -45 36
-45 2 0 38 -33 79 -74 42 -40 78 -72 81 -69 2 2 7 -5 11 -16 3 -12 12 -21 20
-21 8 0 16 -9 20 -20 3 -11 10 -19 14 -17 9 2 80 -74 81 -86 0 -5 4 -6 9 -2 5
3 12 -4 16 -15 3 -11 13 -20 21 -20 8 0 14 -3 14 -7 0 -5 10 -20 23 -35 13
-15 32 -39 43 -54 10 -15 29 -36 42 -47 12 -11 22 -27 22 -34 0 -8 7 -16 15
-19 8 -4 15 -12 15 -20 0 -8 5 -14 10 -14 6 0 10 -7 10 -15 0 -8 7 -15 16 -15
8 0 13 -4 9 -9 -3 -5 -1 -12 4 -15 5 -4 8 1 7 10 -1 8 -9 20 -17 25 -12 7 -12
9 1 9 12 1 12 3 -2 14 -10 7 -18 18 -18 23 0 6 -7 16 -15 23 -8 7 -12 17 -9
22 3 5 -3 18 -15 29 -12 11 -21 26 -21 34 0 7 -3 15 -7 17 -5 2 -19 24 -32 51
-13 26 -28 47 -33 47 -5 0 -7 4 -3 9 3 5 1 12 -5 16 -6 4 -8 10 -5 15 3 4 -2
11 -11 14 -8 3 -13 10 -10 15 3 5 -5 20 -19 35 -13 14 -22 26 -19 26 5 0 1 6
-42 75 -13 22 -29 52 -35 68 -6 15 -15 27 -21 27 -5 0 -6 5 -3 10 3 6 2 10 -2
10 -5 0 -16 18 -26 40 -9 22 -22 40 -28 40 -6 0 -9 5 -7 12 2 6 -6 22 -19 36
-12 13 -20 28 -17 33 3 5 0 9 -5 9 -6 0 -11 7 -11 15 0 8 -4 15 -10 15 -5 0
-10 7 -10 15 0 8 -5 15 -11 15 -6 0 -9 6 -6 14 3 8 -5 22 -18 32 -13 10 -21
22 -18 27 3 4 -3 15 -13 23 -11 9 -12 13 -4 9 8 -4 4 3 -10 14 -14 11 -20 21
-15 21 6 0 2 5 -7 11 -10 5 -18 17 -18 24 0 8 -4 15 -10 15 -5 0 -9 3 -9 8 3
17 -2 35 -7 29 -6 -6 -29 28 -53 81 -6 12 -16 22 -22 22 -6 0 -9 6 -6 13 3 7
-4 19 -14 25 -10 7 -19 19 -19 27 0 8 -4 15 -10 15 -5 0 -10 7 -10 15 0 8 -4
15 -10 15 -5 0 -10 5 -10 10 0 10 -8 21 -37 54 -7 8 -9 16 -6 20 4 3 1 6 -5 6
-7 0 -12 7 -12 15 0 9 -7 18 -16 22 -8 3 -13 12 -10 20 3 8 1 11 -4 8 -6 -3
-10 -1 -10 4 0 6 -20 37 -45 70 -25 32 -45 62 -45 66 0 4 -10 16 -22 26 -11
11 -18 19 -14 19 4 0 0 7 -8 16 -9 8 -13 20 -10 26 4 7 2 8 -4 4 -6 -3 -16 3
-23 16 -6 12 -20 31 -30 42 -11 11 -19 25 -19 31 0 6 -9 17 -20 25 -11 8 -20
18 -20 23 0 4 -5 13 -10 20 -6 7 -24 27 -40 46 -17 19 -30 41 -30 48 0 8 -4
11 -10 8 -5 -3 -10 0 -10 8 0 8 -7 18 -16 21 -9 4 -15 9 -12 12 5 5 -14 31
-54 75 -10 10 -18 22 -18 25 0 4 -10 15 -22 25 -11 11 -17 19 -13 19 4 0 -3
11 -16 23 -30 30 -105 121 -100 121 2 1 -14 19 -35 42 -61 64 -131 144 -127
144 1 0 -21 24 -50 54 -28 29 -59 63 -67 75 -8 11 -21 21 -29 21 -8 0 -12 3
-8 6 7 7 -249 264 -263 264 -6 0 -10 6 -10 13 0 6 -16 22 -36 35 -19 12 -32
27 -29 33 4 5 3 8 -2 7 -5 -2 -19 7 -33 20 -13 12 -28 22 -32 22 -5 0 -6 5 -3
10 3 6 1 10 -5 10 -6 0 -21 10 -34 23 -53 52 -99 86 -110 80 -6 -3 -8 -3 -4 1
8 10 -14 36 -24 29 -5 -2 -8 2 -8 10 0 7 -11 19 -25 25 -14 6 -25 16 -25 22 0
5 -7 10 -15 10 -8 0 -20 9 -27 20 -7 11 -18 20 -25 20 -7 0 -16 8 -22 18 -5 9
-12 15 -14 12 -3 -3 -19 7 -36 23 -17 15 -35 27 -41 27 -5 0 -10 5 -10 10 0 6
-7 10 -16 10 -8 0 -12 5 -9 10 3 6 0 10 -7 10 -7 0 -26 11 -42 25 -16 14 -32
25 -36 25 -4 0 -20 12 -35 28 -16 15 -25 21 -21 14 7 -11 4 -11 -13 0 -12 7
-21 16 -21 19 0 4 -13 12 -30 19 -16 7 -30 16 -30 21 0 5 -7 9 -15 9 -8 0 -15
5 -15 10 0 6 -4 10 -10 10 -9 0 -72 39 -96 59 -7 6 -15 7 -18 4 -3 -4 -6 -2
-6 3 0 6 -16 16 -35 24 -19 8 -35 17 -35 21 0 4 -16 13 -35 20 -19 7 -35 17
-35 21 0 4 -6 8 -13 8 -7 0 -29 11 -48 25 -20 13 -39 21 -43 18 -3 -4 -6 -1
-6 5 0 7 -7 12 -15 12 -8 0 -15 5 -15 11 0 5 -4 7 -10 4 -5 -3 -10 -2 -10 4 0
6 -7 8 -15 5 -8 -4 -17 1 -21 10 -3 9 -10 14 -14 11 -5 -3 -16 2 -24 11 -9 8
-16 13 -16 10 0 -8 -124 55 -131 67 -4 5 -9 3 -12 -4 -4 -10 -6 -10 -6 -1 -1
6 -8 12 -16 12 -8 0 -15 5 -15 11 0 5 -4 8 -9 4 -11 -6 -61 15 -61 26 0 4 -9
6 -20 4 -11 -2 -20 0 -20 6 0 5 -9 9 -20 9 -11 0 -20 5 -20 12 0 6 -3 8 -7 5
-3 -4 -17 0 -30 8 -16 11 -23 12 -23 4 0 -7 -9 -2 -20 11 -13 15 -20 18 -20 9
-1 -10 -4 -9 -14 4 -10 13 -16 15 -22 6 -5 -9 -10 -9 -18 2 -11 14 -29 21 -53
22 -7 0 -13 4 -13 9 0 4 -9 8 -19 8 -11 0 -23 5 -26 11 -4 6 -13 8 -21 5 -8
-3 -14 -1 -14 5 0 6 -4 7 -10 4 -5 -3 -10 -2 -10 2 0 5 -12 10 -27 11 -15 1
-30 8 -34 14 -5 7 -11 9 -15 5 -4 -4 -18 0 -31 8 -13 9 -23 13 -23 10 0 -3
-16 2 -36 10 -20 8 -45 15 -55 15 -11 0 -19 4 -19 8 0 4 -8 9 -17 10 -50 6
-58 8 -64 16 -4 4 -20 9 -37 9 -17 1 -28 5 -26 9 3 5 -9 8 -25 8 -17 0 -31 4
-31 9 0 6 -9 8 -20 6 -11 -2 -22 0 -25 5 -3 5 -12 7 -20 3 -8 -3 -15 0 -15 7
0 7 -6 10 -14 7 -8 -3 -17 -3 -20 1 -4 3 -14 7 -24 8 -21 3 -57 12 -57 14 0 3
-41 11 -68 14 -16 1 -32 7 -35 13 -4 5 -16 9 -27 7 -10 -2 -26 3 -34 9 -8 7
-16 11 -18 10 -1 -2 -4 -3 -5 -2 -2 0 -19 2 -37 5 -19 2 -39 10 -43 17 -6 9
-8 9 -8 -1 0 -8 -5 -10 -12 -5 -7 4 -22 9 -32 10 -11 2 -26 9 -35 16 -10 8
-13 9 -8 0 5 -7 -4 -6 -23 3 -16 9 -34 13 -40 9 -5 -3 -10 -2 -10 2 0 5 -10
10 -22 11 -46 5 -62 9 -65 18 -2 5 -25 8 -53 8 -27 -1 -50 2 -50 6 0 9 -20 8
-37 -3 -6 -4 -14 -3 -18 3 -8 13 -16 12 -40 -6z"/>
<path d="M6186 13647 c3 -10 9 -15 12 -12 3 3 0 11 -7 18 -10 9 -11 8 -5 -6z"/>
<path d="M7824 13128 c1 -7 11 -24 23 -38 43 -50 58 -69 73 -91 8 -12 23 -29
33 -38 9 -8 17 -20 17 -25 0 -5 13 -22 30 -37 16 -16 27 -29 24 -29 -4 0 -1
-6 5 -13 6 -8 8 -17 4 -21 -4 -4 1 -4 12 0 14 6 17 4 12 -8 -3 -10 0 -19 9
-22 9 -3 12 -10 9 -16 -3 -5 1 -10 10 -10 9 0 14 -4 11 -9 -3 -5 6 -20 21 -35
14 -14 22 -26 18 -26 -5 0 2 -9 15 -20 13 -11 19 -20 14 -20 -5 0 -1 -5 9 -11
9 -5 17 -17 17 -24 0 -8 3 -15 8 -15 4 0 18 -20 32 -45 14 -25 28 -45 32 -45
5 0 8 -6 8 -13 0 -8 9 -22 20 -32 11 -10 20 -24 20 -32 0 -7 5 -13 10 -13 6 0
10 -7 10 -15 0 -8 5 -15 10 -15 6 0 10 -4 10 -9 0 -5 18 -36 40 -69 22 -33 40
-65 40 -71 0 -6 4 -11 8 -11 5 0 16 -16 25 -35 9 -19 21 -35 27 -35 5 0 7 -7
4 -15 -4 -8 1 -17 10 -21 9 -3 13 -10 10 -15 -3 -5 0 -9 5 -9 6 0 11 -7 11
-15 0 -8 5 -15 11 -15 5 0 8 -4 5 -9 -3 -5 1 -14 9 -21 8 -7 15 -21 15 -32 0
-10 5 -16 10 -13 9 6 14 -8 11 -27 0 -5 4 -8 9 -8 6 0 10 -7 10 -15 0 -8 5
-15 11 -15 5 0 8 -4 4 -10 -3 -5 3 -18 14 -29 11 -11 17 -22 14 -25 -3 -3 4
-17 16 -32 11 -15 21 -33 21 -40 0 -8 4 -14 8 -14 4 0 19 -25 32 -55 13 -30
28 -55 32 -55 4 0 8 -9 8 -20 0 -11 5 -20 10 -20 6 0 10 -7 10 -15 0 -8 9 -30
20 -50 11 -19 17 -35 13 -35 -4 0 1 -6 11 -13 15 -11 22 -28 25 -60 1 -5 5 -6
9 -3 5 3 9 0 9 -7 1 -22 8 -41 21 -55 6 -7 12 -20 12 -28 0 -20 3 -27 17 -44
7 -8 14 -19 14 -25 1 -5 10 -25 20 -44 10 -19 16 -38 13 -43 -3 -4 -1 -8 4 -8
8 0 55 -100 57 -120 0 -3 6 -15 13 -26 6 -12 8 -24 5 -28 -3 -3 -2 -6 3 -6 6
0 19 -24 29 -52 10 -29 17 -53 15 -53 -3 0 5 -16 18 -36 12 -20 19 -39 15 -42
-3 -4 0 -7 7 -7 7 0 11 -3 7 -6 -3 -3 3 -25 13 -49 10 -24 16 -46 13 -49 -4
-3 -1 -6 5 -6 7 0 12 -10 12 -22 0 -13 7 -31 15 -41 7 -11 12 -27 10 -38 -2
-10 1 -19 7 -19 5 0 8 -7 4 -15 -3 -8 1 -21 9 -29 8 -7 12 -16 9 -19 -3 -3 -1
-15 6 -26 8 -16 8 -21 -2 -21 -9 0 -9 -3 2 -10 8 -5 16 -17 17 -27 3 -26 8
-47 14 -58 3 -5 5 -24 5 -42 -1 -17 2 -29 7 -26 4 2 8 -10 8 -26 2 -40 3 -43
13 -60 7 -11 6 -12 -5 -6 -12 8 -12 6 -1 -8 8 -9 11 -21 8 -26 -4 -5 -1 -13 5
-16 6 -4 8 -18 4 -32 -3 -14 -2 -22 3 -19 4 2 7 -18 6 -45 -1 -27 3 -49 8 -49
6 0 7 -7 4 -16 -4 -9 -1 -24 6 -32 7 -9 8 -13 2 -9 -12 7 -12 -58 0 -70 3 -3
1 -12 -5 -20 -6 -7 -8 -13 -3 -13 5 0 9 -18 9 -40 1 -22 -3 -40 -7 -40 -4 0
-3 -11 2 -25 7 -19 6 -27 -8 -34 -9 -6 -12 -11 -6 -11 12 0 15 -30 2 -30 -4 0
-6 -13 -3 -30 3 -18 1 -30 -5 -30 -6 0 -9 -4 -6 -9 3 -4 1 -23 -5 -42 -6 -19
-12 -45 -15 -58 -3 -13 -11 -39 -19 -58 -8 -20 -12 -39 -9 -44 3 -5 0 -9 -5
-9 -6 0 -11 -9 -11 -20 0 -11 -4 -20 -10 -20 -5 0 -10 -3 -9 -7 2 -16 -14 -53
-23 -53 -5 0 -6 -4 -3 -10 3 -5 1 -10 -5 -10 -6 0 -8 -4 -5 -10 3 -5 1 -10 -4
-10 -6 0 -11 -6 -11 -13 0 -7 -9 -23 -20 -35 -11 -12 -20 -25 -20 -30 0 -5
-11 -21 -25 -36 -13 -14 -25 -29 -25 -31 0 -3 0 -10 0 -17 0 -6 -3 -9 -6 -6
-9 10 -12 58 -4 58 5 0 6 8 3 19 -3 10 0 22 6 25 7 5 7 15 1 31 -5 14 -6 25
-1 25 5 0 7 14 5 30 -2 19 1 30 9 30 8 0 7 4 -3 10 -11 7 -11 10 -2 10 7 0 10
5 7 11 -11 17 -11 89 0 89 6 0 3 5 -5 10 -13 9 -13 10 0 10 13 0 13 1 0 10
-13 9 -13 10 0 10 12 0 13 2 1 9 -11 7 -11 9 0 14 8 3 10 6 4 6 -6 1 -8 23 -6
52 2 41 0 50 -10 43 -11 -6 -12 -5 -2 8 7 8 11 17 9 19 -2 2 -6 17 -10 32 -5
22 -4 27 6 21 8 -5 6 2 -4 18 -12 19 -14 28 -5 37 8 8 8 11 -1 11 -7 0 -12 5
-12 11 0 5 6 7 13 3 9 -6 9 -5 0 8 -7 8 -10 18 -6 21 3 4 0 14 -7 23 -11 13
-11 17 -1 24 9 5 10 9 2 11 -6 2 -13 13 -15 24 -2 11 -9 39 -14 63 -5 23 -7
42 -3 42 3 0 -1 5 -9 10 -11 7 -12 10 -2 10 10 0 9 4 -2 16 -9 8 -14 20 -10
25 3 6 1 15 -4 22 -9 12 -22 54 -21 71 1 5 -5 13 -13 17 -11 7 -10 9 1 9 11 0
10 4 -5 16 -10 8 -12 13 -4 9 9 -4 8 -1 -3 8 -12 10 -14 16 -6 19 9 3 8 8 -2
18 -8 8 -16 24 -17 35 -2 11 -7 22 -11 25 -4 3 -6 12 -6 20 0 8 -6 21 -15 28
-13 12 -13 12 0 6 12 -6 13 -4 3 7 -7 7 -13 23 -13 36 0 13 -4 23 -10 23 -5 0
-10 6 -10 14 0 8 -9 36 -20 62 -11 25 -21 57 -22 70 -1 12 -7 22 -13 21 -5 -1
-9 6 -7 16 2 9 -1 17 -6 17 -5 0 -9 6 -10 13 -2 24 -27 87 -34 87 -5 0 -8 13
-8 29 0 16 -7 34 -15 41 -9 7 -14 19 -11 27 3 7 1 13 -4 13 -6 0 -10 6 -10 14
0 8 -9 31 -21 50 -12 20 -17 36 -13 36 4 0 -1 7 -12 16 -10 8 -14 13 -8 10 6
-3 -4 25 -22 61 -18 37 -31 71 -28 75 3 4 0 8 -5 8 -6 0 -11 9 -11 20 0 11 -4
20 -9 20 -8 0 -24 41 -25 65 -1 6 -9 16 -19 23 -9 7 -15 17 -12 22 3 5 1 11
-5 15 -6 4 -8 11 -5 16 4 5 1 9 -5 9 -6 0 -8 5 -5 10 3 6 2 10 -2 10 -5 0 -15
16 -22 35 -7 19 -17 35 -22 35 -6 0 -8 4 -4 9 3 5 -3 17 -12 27 -10 10 -16 19
-14 21 7 6 -22 73 -31 73 -4 0 -8 7 -8 16 0 8 -7 22 -15 31 -8 8 -13 19 -10
24 4 5 1 9 -4 9 -6 0 -11 7 -11 15 0 8 -4 15 -10 15 -5 0 -10 9 -10 20 0 11
-4 20 -10 20 -5 0 -10 7 -10 15 0 8 -4 15 -10 15 -5 0 -9 3 -8 8 2 8 -23 64
-32 72 -3 3 -14 22 -23 42 -10 20 -22 40 -27 43 -6 4 -8 11 -5 16 4 5 1 9 -4
9 -6 0 -11 7 -11 15 0 8 -4 15 -8 15 -5 0 -14 16 -22 35 -8 19 -17 35 -22 35
-4 0 -8 7 -8 15 0 8 -4 15 -10 15 -5 0 -10 9 -10 21 0 11 -4 17 -10 14 -5 -3
-10 3 -10 14 0 12 -4 21 -10 21 -5 0 -10 7 -10 16 0 8 -6 22 -12 29 -30 33
-38 45 -33 45 4 0 -3 12 -14 26 -12 15 -21 33 -21 40 0 8 -4 14 -9 14 -5 0
-13 9 -16 20 -4 11 -11 17 -17 14 -7 -5 -9 -1 -5 9 3 10 2 17 -3 17 -6 0 -10
7 -10 16 0 9 -5 12 -12 8 -7 -5 -9 -2 -6 8 4 8 -2 20 -13 27 -11 6 -17 16 -14
21 3 6 1 10 -4 10 -6 0 -11 6 -11 13 0 7 -8 22 -17 33 -10 10 -24 31 -32 47
-8 15 -18 27 -23 27 -4 0 -8 7 -8 15 0 7 -8 19 -17 24 -10 6 -14 11 -10 11 8
0 -1 13 -35 51 -10 10 -18 24 -18 30 0 16 -26 39 -35 31 -5 -4 -5 -2 -2 4 4 7
-2 22 -12 35 -40 52 -91 129 -91 138 0 5 -13 23 -29 40 -16 17 -26 31 -23 31
4 0 -4 7 -16 16 -24 16 -58 12 -47 -6 3 -5 2 -10 -3 -10 -11 0 -10 -40 1 -57
5 -8 3 -13 -3 -13 -8 0 -8 -6 0 -21 7 -11 13 -30 16 -42 2 -12 6 -33 10 -47 3
-14 8 -38 11 -55 3 -16 9 -32 13 -35 5 -3 7 -18 6 -32 -2 -15 1 -25 5 -22 5 3
9 2 10 -3 0 -4 3 -19 5 -33 2 -14 5 -31 6 -37 1 -7 6 -13 11 -13 6 0 7 -3 4
-6 -3 -4 -2 -15 4 -25 7 -14 6 -19 -3 -19 -10 0 -10 -2 0 -9 8 -4 13 -11 13
-15 -1 -3 -1 -7 0 -8 1 -2 2 -20 3 -40 0 -20 4 -39 8 -43 4 -4 4 -13 2 -20 -3
-7 0 -16 6 -20 8 -5 8 -11 -1 -21 -6 -8 -7 -14 -2 -14 5 0 10 -7 10 -15 0 -8
-5 -15 -11 -15 -6 0 -5 -4 3 -9 8 -5 11 -16 8 -25 -4 -9 -1 -16 6 -16 8 0 6
-4 -3 -10 -8 -5 -10 -10 -5 -10 6 0 10 -28 10 -65 0 -36 4 -65 8 -65 5 0 5 -5
2 -11 -12 -18 -13 -59 -1 -59 6 0 4 -5 -4 -10 -11 -7 -11 -10 -2 -10 10 0 10
-5 2 -20 -6 -12 -7 -20 -1 -20 6 0 6 -11 1 -29 -6 -21 -5 -31 3 -35 9 -3 9 -7
1 -13 -13 -10 -14 -43 -1 -43 6 0 5 -5 -1 -12 -5 -7 -10 -35 -11 -62 0 -26 -5
-54 -11 -61 -8 -10 -8 -15 0 -20 7 -5 8 -11 1 -19 -6 -7 -6 -17 -1 -26 5 -9 5
-19 -2 -27 -5 -7 -8 -20 -4 -28 3 -8 0 -15 -7 -15 -8 0 -6 -4 3 -10 12 -7 12
-10 1 -10 -9 0 -11 -8 -7 -26 4 -14 3 -23 -2 -20 -5 3 -8 -8 -7 -24 1 -17 -3
-30 -8 -30 -5 0 -4 -7 3 -15 8 -9 8 -15 2 -15 -6 0 -11 -8 -11 -17 -2 -45 -6
-63 -13 -63 -4 0 -8 -10 -8 -22 0 -42 -4 -68 -10 -68 -3 0 -7 -9 -8 -20 -4
-43 -6 -50 -13 -50 -4 0 -5 -10 -1 -22 3 -13 1 -19 -6 -15 -6 4 -9 0 -7 -10 1
-10 -4 -29 -12 -42 -12 -18 -12 -22 -2 -15 12 7 12 5 1 -9 -8 -9 -11 -21 -7
-27 3 -5 1 -10 -5 -10 -6 0 -8 -4 -5 -10 3 -5 1 -10 -5 -10 -7 0 -9 -8 -5 -21
5 -16 4 -19 -6 -14 -9 6 -11 3 -6 -8 4 -10 1 -17 -5 -17 -6 0 -9 -3 -5 -6 3
-4 0 -19 -9 -35 -8 -16 -14 -30 -13 -31 4 -11 -15 -58 -24 -58 -6 0 -8 -3 -4
-6 3 -4 0 -19 -9 -35 -8 -16 -12 -29 -9 -29 3 0 -2 -11 -11 -24 -8 -14 -16
-29 -17 -33 -1 -4 -6 -7 -10 -5 -5 1 -6 -2 -2 -8 3 -5 0 -20 -7 -32 -7 -13
-11 -26 -10 -30 1 -5 -2 -8 -8 -8 -6 0 -9 -3 -8 -7 1 -5 -3 -18 -10 -30 -7
-13 -9 -23 -5 -23 4 0 0 -5 -10 -11 -9 -6 -15 -14 -12 -20 4 -5 1 -9 -5 -9 -6
0 -9 -4 -5 -9 3 -6 -5 -20 -17 -32 -13 -12 -16 -18 -9 -14 9 5 5 -5 -8 -23
-12 -18 -19 -37 -15 -43 4 -7 3 -9 -3 -6 -10 6 -60 -71 -55 -85 1 -5 -2 -8 -7
-8 -10 0 -27 -39 -23 -53 1 -5 -1 -6 -6 -3 -9 5 -43 -29 -36 -37 4 -4 -39 -65
-75 -103 -11 -12 -17 -25 -14 -28 4 -3 1 -6 -5 -6 -7 0 -12 -6 -12 -14 0 -8
-7 -16 -15 -20 -8 -3 -15 -12 -15 -21 0 -8 -4 -15 -8 -15 -5 0 -17 -16 -28
-35 -10 -19 -23 -35 -28 -35 -5 0 -7 -3 -3 -6 3 -4 -1 -13 -9 -21 -8 -8 -11
-19 -8 -25 4 -6 2 -8 -4 -4 -11 6 -28 -30 -23 -49 1 -5 -1 -7 -5 -3 -10 11
-46 -51 -38 -64 4 -7 2 -8 -4 -4 -7 4 -12 1 -12 -8 0 -9 -6 -16 -12 -16 -10 0
-10 -2 0 -9 11 -7 11 -9 0 -13 -7 -3 -14 -18 -16 -34 -1 -15 -6 -30 -11 -33
-4 -3 -7 -14 -5 -23 1 -10 -3 -18 -9 -18 -7 0 -5 -5 3 -10 9 -6 10 -10 3 -10
-7 0 -10 -10 -7 -26 3 -16 1 -23 -6 -19 -13 8 -9 -17 5 -27 6 -5 5 -8 -4 -8
-10 0 -11 -3 -2 -13 6 -8 8 -16 5 -20 -8 -8 -12 -57 -4 -57 3 0 6 -18 5 -40
-1 -23 2 -43 6 -46 5 -2 6 -11 2 -19 -3 -9 1 -15 8 -15 12 0 12 -2 1 -9 -11
-7 -11 -11 2 -23 8 -9 12 -18 9 -21 -3 -4 -2 -14 2 -24 5 -10 10 -31 12 -48 3
-16 9 -31 14 -33 5 -2 9 -11 9 -21 0 -9 5 -22 12 -29 7 -7 8 -12 3 -12 -4 0 0
-10 11 -22 10 -12 13 -18 6 -14 -11 7 -11 4 0 -15 7 -13 18 -27 23 -31 6 -4 6
-8 1 -8 -5 0 -1 -10 10 -22 10 -12 13 -18 7 -14 -7 4 -13 2 -13 -3 0 -6 5 -11
11 -11 5 0 15 -13 20 -30 6 -16 16 -30 22 -30 6 0 8 -3 4 -6 -3 -4 1 -21 10
-38 10 -17 16 -34 15 -38 -1 -5 3 -8 8 -8 6 0 10 -7 10 -15 0 -8 5 -15 11 -15
5 0 8 -4 5 -9 -3 -5 4 -21 15 -35 12 -15 19 -30 15 -33 -3 -3 3 -12 14 -20 11
-8 20 -23 20 -34 0 -10 5 -19 11 -19 5 0 8 -4 4 -9 -3 -5 1 -16 9 -24 8 -8 13
-17 10 -19 -2 -3 2 -11 11 -18 8 -7 15 -21 15 -30 0 -10 3 -20 8 -22 12 -5 67
-125 64 -140 -1 -5 2 -8 7 -8 6 0 8 -9 6 -20 -3 -13 0 -18 7 -14 7 5 9 2 5 -9
-3 -9 0 -18 9 -21 12 -5 13 -10 3 -27 -8 -15 -8 -19 0 -15 7 4 11 -1 11 -13 0
-12 4 -21 8 -21 4 0 9 -11 10 -26 1 -14 6 -34 12 -44 5 -10 10 -29 10 -42 0
-13 6 -30 13 -37 10 -11 9 -12 -3 -6 -12 6 -13 5 -2 -6 6 -7 12 -17 12 -22 0
-4 -6 -5 -12 -2 -7 4 -6 1 2 -7 9 -8 15 -28 14 -50 -1 -22 4 -38 10 -38 6 0 4
-5 -4 -10 -8 -5 -10 -10 -3 -10 12 0 12 -17 0 -37 -4 -6 -2 -15 4 -19 8 -5 9
-3 4 6 -6 9 -4 11 4 5 9 -5 9 -11 3 -17 -6 -6 -8 -17 -5 -26 5 -11 3 -13 -7
-7 -10 6 -11 4 -4 -6 12 -20 12 -63 -1 -71 -6 -5 -5 -8 3 -8 8 0 10 -5 6 -12
-4 -7 -9 -28 -11 -47 -2 -20 -9 -39 -16 -43 -9 -6 -8 -8 2 -8 11 0 11 -3 1
-15 -7 -8 -9 -15 -4 -15 5 0 3 -4 -3 -8 -7 -5 -14 -20 -15 -35 -1 -15 -6 -27
-11 -27 -4 0 -5 -4 -2 -10 3 -6 1 -10 -5 -10 -6 0 -8 -5 -5 -10 3 -6 -1 -13
-10 -16 -13 -6 -14 -8 -3 -15 9 -6 10 -9 1 -9 -7 0 -19 -13 -28 -29 -8 -16
-23 -37 -32 -47 -10 -10 -18 -20 -18 -23 -1 -11 -69 -78 -97 -96 -15 -9 -25
-21 -22 -26 3 -5 -2 -6 -10 -3 -10 4 -16 1 -16 -7 0 -7 -3 -9 -6 -6 -4 4 -19
-2 -33 -12 -14 -10 -32 -16 -38 -14 -7 3 -13 -1 -13 -7 0 -7 -8 -10 -20 -7
-11 3 -20 2 -20 -3 0 -4 -10 -6 -22 -6 -13 1 -27 0 -33 -3 -17 -10 -90 -7 -97
4 -5 6 -11 5 -17 -4 -7 -11 -9 -11 -13 0 -2 7 -9 9 -17 5 -9 -6 -8 -13 6 -29
13 -14 14 -18 3 -13 -8 4 -7 1 4 -8 10 -8 16 -19 13 -24 -3 -4 3 -15 14 -22
10 -8 19 -19 19 -26 0 -6 11 -17 25 -24 13 -7 22 -17 19 -22 -3 -4 0 -8 7 -8
6 0 22 -11 34 -24 13 -14 26 -22 29 -19 3 4 6 1 6 -5 0 -7 6 -12 13 -12 7 0
23 -9 35 -20 12 -11 26 -20 32 -20 5 0 10 -4 10 -10 0 -5 5 -10 10 -10 6 0 22
-11 36 -25 14 -14 29 -25 34 -25 6 0 10 -7 10 -16 0 -8 5 -12 10 -9 6 3 10 3
10 -2 0 -4 14 -22 30 -40 17 -18 30 -36 30 -41 0 -5 7 -15 15 -22 8 -7 12 -16
9 -21 -3 -5 0 -9 5 -9 6 0 11 -7 11 -15 0 -8 4 -15 9 -15 6 0 8 -9 6 -20 -2
-11 0 -20 4 -20 4 0 13 -12 19 -26 7 -14 8 -23 2 -19 -16 10 -12 -7 8 -28 12
-15 13 -18 2 -12 -12 7 -13 6 -4 -6 5 -8 11 -30 13 -49 2 -19 8 -38 13 -41 7
-4 6 -9 -1 -13 -7 -5 -8 -13 -2 -24 5 -9 11 -35 12 -57 2 -22 7 -43 12 -46 4
-3 10 -19 12 -35 9 -57 18 -89 30 -109 7 -11 11 -28 10 -37 -2 -10 1 -18 6
-18 5 0 9 -11 9 -24 0 -14 4 -27 9 -30 7 -5 13 -23 27 -85 1 -8 8 -17 15 -21
6 -4 8 -13 5 -19 -4 -6 -1 -11 6 -11 9 0 9 -3 -2 -10 -8 -5 -10 -10 -4 -10 7
0 14 -10 18 -23 3 -13 13 -41 22 -63 18 -40 23 -56 26 -86 1 -9 6 -14 10 -12
7 5 12 -18 9 -38 0 -5 3 -8 9 -8 5 0 10 -8 10 -18 0 -10 4 -22 9 -28 5 -5 11
-18 13 -29 1 -11 9 -26 16 -33 7 -8 10 -18 7 -23 -4 -5 -1 -9 5 -9 6 0 9 -4 5
-9 -3 -5 2 -16 10 -24 8 -9 15 -19 15 -24 0 -11 35 -80 48 -96 6 -7 12 -19 14
-27 2 -8 14 -25 28 -37 20 -18 22 -25 12 -35 -10 -10 -15 -10 -22 2 -8 12 -10
12 -10 1 0 -7 -6 -11 -15 -7 -8 3 -15 0 -15 -6 0 -7 -4 -7 -14 1 -11 10 -17 8
-25 -6 -6 -10 -11 -12 -11 -6 0 14 -26 13 -49 -1 -7 -5 -16 -5 -20 0 -8 11
-34 17 -28 7 3 -5 -25 -10 -61 -11 -124 -5 -137 -6 -144 -17 -5 -6 -8 -5 -8 3
0 8 -5 10 -12 5 -19 -11 -39 -13 -32 -2 3 5 -5 5 -19 0 -17 -7 -28 -6 -37 2
-10 9 -14 9 -17 -1 -4 -10 -8 -10 -21 0 -8 7 -17 12 -19 11 -11 -9 -43 -1 -37
8 4 8 1 8 -13 1 -15 -9 -22 -7 -33 9 -8 10 -18 19 -23 19 -14 0 -90 81 -106
113 -8 15 -18 27 -23 27 -4 0 -8 5 -8 11 0 6 -7 17 -15 26 -8 8 -13 19 -10 24
4 5 -1 6 -10 3 -9 -4 -15 -3 -14 2 3 18 -1 33 -13 46 -7 7 -20 27 -28 43 -8
17 -22 35 -30 42 -8 7 -10 13 -5 13 6 0 6 3 -1 8 -19 13 -64 98 -56 107 4 4 2
5 -5 2 -7 -4 -17 5 -25 23 -7 16 -16 30 -20 30 -5 0 -8 7 -8 16 0 8 -4 12 -10
9 -5 -3 -10 0 -10 8 0 8 -11 25 -25 38 -13 13 -25 30 -25 37 0 7 -3 11 -7 9
-5 -3 -17 7 -28 20 -11 14 -30 34 -42 46 -12 11 -20 24 -17 29 3 4 -2 8 -10 8
-9 0 -16 4 -16 8 0 4 -16 25 -35 45 -19 20 -33 37 -30 37 3 0 -9 14 -27 30
-17 17 -28 30 -24 30 4 0 0 7 -9 16 -9 9 -32 42 -52 73 -19 31 -41 59 -47 63
-7 5 -6 8 4 8 12 1 11 3 -3 11 -9 6 -15 14 -12 20 4 5 1 9 -5 9 -7 0 -10 7 -6
15 3 8 1 15 -4 15 -5 0 -14 18 -20 40 -6 22 -16 40 -23 40 -7 0 -6 4 3 10 10
6 11 10 2 10 -6 0 -11 3 -11 8 1 4 0 9 -1 12 -6 16 -10 65 -10 135 0 91 3 115
14 133 4 6 4 17 1 22 -3 6 -1 10 5 10 7 0 10 7 6 15 -3 8 -1 15 5 15 6 0 8 4
4 9 -3 6 3 14 12 20 10 6 14 11 9 11 -4 0 -1 11 8 25 9 14 14 25 10 25 -3 0 8
12 25 27 17 15 31 33 31 39 0 6 8 14 18 17 9 4 35 17 57 30 22 13 46 22 53 19
7 -2 10 1 7 11 -4 8 -17 15 -31 16 -13 1 -35 2 -49 3 -14 1 -25 5 -25 8 0 8
-53 6 -67 -3 -7 -5 -13 -4 -13 1 0 10 -60 10 -77 -1 -6 -4 -14 -3 -18 3 -4 7
-13 6 -27 -1 -16 -8 -19 -8 -13 1 6 9 2 9 -14 1 -16 -9 -21 -9 -21 1 0 10 -2
10 -9 -1 -5 -7 -14 -10 -20 -7 -6 4 -11 3 -11 -1 0 -5 -12 -9 -27 -8 -16 0
-34 -6 -41 -15 -8 -8 -11 -9 -7 -2 3 6 1 12 -4 12 -6 0 -11 -5 -11 -11 0 -5
-4 -8 -9 -4 -5 3 -12 1 -16 -5 -4 -6 -11 -8 -16 -5 -5 4 -9 1 -9 -4 0 -6 -3
-10 -7 -9 -15 4 -73 -21 -73 -31 0 -6 -3 -10 -7 -9 -5 1 -21 -5 -38 -12 -16
-7 -33 -13 -37 -12 -5 1 -7 -1 -5 -6 1 -4 -8 -17 -21 -30 -12 -12 -22 -19 -22
-14 0 6 -50 -47 -102 -108 -17 -19 -36 -51 -44 -72 -3 -10 -10 -18 -15 -18 -5
0 -9 -3 -8 -7 2 -16 -14 -53 -22 -53 -5 0 -9 -5 -9 -11 0 -5 5 -7 10 -4 6 4 1
-10 -10 -30 -11 -20 -15 -33 -8 -29 10 6 9 3 -1 -9 -7 -9 -14 -36 -15 -61 0
-24 -5 -42 -10 -39 -4 3 -5 -5 0 -18 4 -13 7 -28 6 -34 0 -5 -3 -27 -5 -47 -3
-21 -2 -38 2 -38 4 0 7 -8 8 -17 2 -54 8 -83 17 -83 5 0 6 -3 3 -7 -4 -3 -1
-13 6 -21 10 -13 9 -14 -3 -7 -12 7 -13 6 -3 -6 7 -9 14 -26 17 -40 2 -13 10
-23 17 -21 10 3 10 0 0 -12 -11 -13 -11 -17 2 -22 9 -3 13 -12 10 -21 -4 -11
-2 -14 5 -9 8 5 12 0 12 -14 0 -12 7 -28 15 -37 8 -8 13 -19 10 -24 -4 -5 -2
-9 2 -9 5 0 17 -13 26 -30 10 -16 15 -30 11 -30 -4 0 3 -9 16 -20 13 -11 19
-20 15 -20 -4 0 5 -12 21 -27 16 -15 29 -29 29 -32 0 -3 4 -5 8 -3 5 1 6 -2 2
-8 -4 -6 5 -20 19 -31 14 -11 26 -27 26 -35 0 -8 4 -13 9 -10 4 3 13 -6 19
-19 7 -14 18 -25 27 -25 14 0 19 -12 16 -32 0 -5 4 -8 10 -8 6 0 28 -18 49
-39 21 -21 41 -36 44 -33 3 3 6 -2 6 -11 0 -8 9 -19 20 -22 11 -3 20 -11 20
-16 0 -6 5 -7 10 -4 6 3 10 -1 10 -9 0 -9 4 -16 10 -16 5 0 20 -11 34 -25 14
-14 29 -25 33 -25 5 0 15 -9 23 -20 8 -11 18 -20 22 -20 8 0 36 -21 64 -48 8
-7 14 -10 14 -5 0 4 11 -5 25 -21 14 -16 25 -25 25 -21 0 4 9 -2 19 -14 11
-13 24 -20 30 -17 5 4 13 -3 16 -15 4 -11 9 -18 12 -15 3 3 11 0 19 -7 24 -22
39 -32 66 -46 15 -8 25 -18 22 -23 -3 -4 2 -8 10 -8 9 0 16 -5 16 -11 0 -5 5
-7 10 -4 6 3 10 -2 11 -12 0 -10 3 -13 5 -7 3 6 23 -6 47 -27 23 -22 46 -39
51 -39 5 0 17 -10 27 -22 11 -11 19 -18 19 -14 0 7 15 -4 55 -42 14 -12 27
-22 30 -22 21 1 25 -1 20 -10 -3 -5 -3 -10 2 -10 10 0 64 -43 115 -91 21 -20
38 -35 38 -33 0 2 19 -14 42 -36 24 -22 46 -40 50 -40 4 0 10 -9 13 -20 3 -11
12 -20 18 -20 7 -1 26 -18 42 -39 17 -21 33 -37 38 -34 4 2 7 -2 7 -9 0 -7 18
-33 40 -58 22 -25 40 -50 40 -56 0 -7 7 -15 16 -18 8 -3 12 -10 9 -16 -3 -5 0
-10 7 -10 8 0 20 -16 27 -35 7 -19 16 -33 21 -30 5 3 7 -3 5 -15 -2 -11 1 -19
8 -17 7 1 12 -5 12 -13 0 -8 2 -17 5 -20 3 -3 12 -14 20 -24 13 -18 13 -19 0
-11 -9 5 -7 -1 5 -14 11 -13 20 -26 20 -30 0 -3 3 -5 6 -4 3 1 5 -9 4 -22 -2
-13 3 -26 12 -29 8 -3 11 -11 7 -17 -3 -6 0 -15 7 -20 11 -7 11 -9 1 -9 -10 0
-9 -4 2 -16 9 -8 14 -20 11 -25 -4 -5 -2 -9 2 -9 5 0 15 -21 22 -48 7 -26 20
-57 27 -69 10 -16 11 -23 3 -23 -8 0 -9 -4 0 -13 6 -8 8 -17 4 -20 -3 -4 -1
-7 6 -7 7 0 9 -4 6 -10 -3 -5 0 -10 7 -10 9 0 9 -3 -2 -10 -10 -6 -11 -10 -3
-10 7 0 16 -18 19 -40 4 -22 11 -40 17 -40 6 0 7 -3 4 -7 -4 -3 -2 -12 4 -20
9 -10 8 -13 -2 -13 -11 0 -11 -2 1 -10 8 -5 11 -12 8 -16 -4 -3 -1 -13 7 -20
7 -8 12 -22 11 -31 -2 -10 1 -20 5 -23 5 -3 11 -17 13 -30 2 -14 5 -27 6 -30
2 -3 2 -8 1 -12 0 -5 3 -8 9 -8 6 0 9 -3 9 -7 -3 -17 14 -73 22 -73 5 0 9 -8
9 -18 0 -10 6 -24 13 -31 10 -11 9 -13 -3 -7 -8 4 -6 0 4 -8 11 -9 16 -16 11
-16 -5 0 -4 -5 3 -12 7 -7 12 -20 12 -29 0 -10 5 -19 10 -21 6 -2 12 -14 15
-27 2 -14 10 -28 17 -33 7 -4 9 -8 3 -8 -5 0 -5 -4 2 -8 6 -4 13 -14 15 -22 2
-8 11 -22 21 -32 13 -12 15 -17 5 -21 -8 -3 -5 -6 6 -6 11 -1 17 -4 13 -7 -3
-4 -1 -12 6 -20 29 -32 37 -44 32 -44 -4 0 23 -29 58 -65 36 -36 69 -65 75
-65 6 0 15 -6 19 -13 10 -16 85 -63 96 -59 4 1 7 -3 7 -9 0 -6 7 -8 16 -5 8 3
13 2 10 -3 -3 -4 14 -14 37 -22 23 -7 45 -18 49 -24 5 -6 8 -5 8 3 0 7 5 10
10 7 6 -4 7 -11 4 -17 -4 -7 -2 -8 4 -4 6 4 21 2 33 -5 16 -8 20 -8 14 1 -5 9
-3 9 11 2 23 -11 184 -11 202 1 7 5 12 3 12 -5 0 -10 2 -10 8 -1 4 7 29 13 55
14 25 1 44 5 42 9 -2 4 9 6 26 5 16 -1 32 2 35 7 3 4 9 6 14 3 5 -3 12 0 16 6
4 8 9 7 15 -2 6 -10 9 -10 9 -2 0 6 8 10 19 8 10 -2 29 2 42 8 13 7 50 12 81
12 32 0 58 4 58 9 0 5 8 2 17 -5 11 -9 14 -10 9 -2 -5 9 1 12 22 9 16 -2 34
-6 40 -10 6 -3 13 0 15 6 4 9 6 9 6 1 1 -6 10 -9 21 -6 13 3 20 0 20 -8 0 -11
2 -11 10 1 6 9 10 10 10 3 0 -6 17 -17 38 -24 59 -19 120 -96 113 -141 0 -5 3
-8 8 -8 5 0 8 -13 7 -30 -1 -16 1 -31 5 -32 4 -2 9 -28 12 -58 3 -30 9 -71 12
-90 4 -19 7 -41 7 -47 1 -7 5 -13 10 -13 4 0 8 -6 8 -13 0 -20 28 -73 45 -87
8 -7 13 -16 10 -20 -2 -4 7 -17 21 -29 14 -12 23 -25 22 -29 -2 -4 25 -35 59
-69 35 -34 63 -60 63 -58 0 2 12 -7 26 -20 15 -14 31 -25 35 -25 5 0 18 -9 29
-20 11 -11 27 -20 35 -20 8 0 15 -4 15 -10 0 -5 9 -10 20 -10 11 0 20 -4 20
-9 0 -8 37 -24 53 -22 4 1 7 -3 7 -8 0 -5 15 -13 32 -17 18 -3 43 -13 55 -21
13 -9 23 -11 23 -7 0 5 5 2 10 -6 7 -11 10 -12 10 -2 0 10 4 9 16 -2 8 -9 19
-14 24 -11 5 3 11 1 15 -5 3 -5 17 -10 31 -10 13 0 24 -4 24 -9 0 -5 7 -12 16
-15 8 -3 12 -2 9 4 -8 13 -3 13 32 -2 36 -14 54 -19 76 -21 9 -1 17 -5 17 -9
0 -4 6 -5 14 -2 8 3 17 1 20 -5 4 -6 13 -8 21 -4 8 3 15 1 15 -4 0 -7 22 -13
68 -16 6 0 12 -3 12 -6 0 -4 12 -8 27 -9 15 -1 30 -7 34 -13 4 -8 8 -7 12 2 4
11 6 11 6 1 1 -7 6 -10 11 -7 6 3 10 2 10 -4 0 -5 9 -8 20 -6 11 2 20 -1 20
-7 0 -5 6 -8 14 -5 8 3 17 3 21 -1 4 -4 10 -7 13 -8 4 0 25 -8 47 -18 22 -9
48 -18 58 -19 9 -1 17 -4 17 -8 0 -8 60 -33 73 -30 4 0 7 -3 7 -9 0 -5 9 -10
20 -10 11 0 23 -7 27 -16 5 -13 7 -13 14 -2 7 10 9 8 9 -6 0 -11 3 -16 6 -13
7 7 107 -42 112 -56 2 -4 8 -5 13 -1 5 3 9 0 9 -6 0 -6 5 -8 10 -5 5 3 10 2
10 -2 0 -5 9 -14 21 -21 17 -11 20 -11 13 0 -4 7 4 3 18 -9 13 -13 30 -23 36
-23 7 0 12 -4 12 -10 0 -5 9 -10 19 -10 10 0 22 -7 25 -16 3 -8 10 -12 16 -9
5 3 10 1 10 -4 0 -6 6 -11 14 -11 7 0 19 -7 26 -15 7 -9 15 -13 17 -11 3 3 17
-6 32 -20 14 -13 31 -22 37 -20 6 2 17 -4 24 -14 8 -11 17 -17 22 -14 4 3 8 0
8 -6 0 -6 4 -9 9 -6 5 3 21 -7 37 -22 15 -15 24 -20 19 -12 -6 11 -3 10 12 -3
11 -9 25 -17 31 -17 7 0 12 -4 12 -10 0 -5 7 -10 15 -10 8 0 15 -5 15 -11 0
-5 4 -8 9 -4 5 3 12 1 16 -5 3 -5 29 -21 58 -35 29 -13 48 -25 42 -26 -5 0 -1
-4 10 -8 11 -5 23 -8 27 -7 4 0 14 -8 23 -19 9 -11 13 -13 9 -5 -6 11 -2 10
13 -3 11 -9 23 -17 27 -17 5 0 28 -13 53 -30 24 -16 50 -30 58 -30 8 0 17 -5
20 -10 4 -6 10 -8 15 -5 5 3 13 -2 18 -11 5 -9 12 -16 15 -16 20 0 47 -12 47
-21 0 -6 3 -8 6 -4 4 3 19 0 35 -9 16 -8 29 -12 29 -9 0 4 7 -1 16 -9 8 -9 20
-14 25 -11 5 4 9 2 9 -3 0 -9 40 -25 65 -26 6 -1 13 -5 17 -10 3 -5 14 -11 23
-12 9 -1 24 -6 33 -10 9 -4 26 -9 37 -11 11 -2 24 -8 29 -13 6 -6 21 -10 34
-10 13 0 21 -4 18 -8 -2 -4 8 -7 22 -6 15 1 32 -1 37 -5 6 -3 13 -6 18 -7 4
-1 8 -2 10 -4 3 -2 76 -17 123 -24 11 -2 27 -7 34 -11 9 -5 11 -4 6 3 -4 7 -2
12 3 12 6 0 11 -4 11 -10 0 -5 7 -7 16 -3 9 3 20 0 25 -8 6 -9 9 -10 9 -2 0
12 30 10 50 -2 6 -3 10 -2 10 4 0 7 8 7 23 2 13 -5 30 -6 37 -1 7 5 22 7 32 5
10 -2 18 1 18 7 0 7 6 6 15 -2 12 -10 15 -10 15 0 0 9 3 10 13 1 9 -7 17 -7
23 -1 9 9 50 19 92 22 6 1 12 4 12 8 0 3 10 7 22 7 13 1 24 7 26 13 2 5 8 8
13 4 5 -3 9 0 9 6 0 6 4 9 9 5 5 -3 15 1 23 8 7 8 19 12 26 9 6 -2 12 1 12 7
0 6 7 11 15 11 8 0 15 5 15 12 0 6 3 9 6 5 4 -3 12 -1 19 6 7 7 23 19 35 27
13 8 35 26 49 40 15 14 42 37 60 52 18 16 29 28 25 28 -4 0 6 11 22 25 16 14
25 25 20 25 -5 0 3 11 17 24 14 13 23 27 19 31 -4 4 0 12 8 18 15 12 49 74 49
90 0 5 8 15 18 23 14 11 15 13 3 14 -13 0 -13 1 0 10 8 5 11 10 6 10 -4 0 -1
12 9 26 11 18 13 24 4 19 -11 -6 -12 -5 -1 6 6 7 12 21 12 32 0 12 4 16 13 11
9 -6 9 -4 1 7 -6 8 -9 23 -7 34 2 11 5 40 6 65 1 25 7 48 12 52 6 5 4 8 -5 8
-13 0 -13 1 0 10 13 9 13 10 0 10 -13 0 -13 1 0 10 10 6 11 10 3 10 -7 0 -13
5 -13 11 0 5 6 7 13 3 8 -6 8 -3 -1 9 -8 9 -11 21 -7 27 3 5 1 10 -6 10 -8 0
-9 4 0 13 8 10 7 17 -1 25 -7 7 -8 12 -4 12 5 0 3 7 -4 15 -9 11 -9 15 -1 15
8 0 9 6 3 18 -5 9 -7 22 -5 29 2 6 -1 14 -6 18 -6 3 -11 17 -11 30 0 13 -5 27
-11 30 -6 4 -8 13 -5 21 3 8 2 14 -3 14 -4 0 -8 6 -9 13 -3 32 -10 51 -20 55
-7 2 -9 8 -6 13 3 6 0 16 -6 24 -7 8 -10 15 -6 15 3 0 -6 20 -20 45 -14 25
-22 51 -18 57 4 6 3 8 -3 5 -5 -3 -20 16 -32 43 -13 28 -27 50 -32 50 -5 0 -8
3 -7 7 2 11 -32 68 -59 101 -13 15 -23 32 -23 38 0 7 -7 15 -16 18 -9 4 -14 9
-11 12 6 6 -13 31 -53 71 -14 14 -18 22 -10 18 8 -5 2 6 -15 23 -60 63 -74 80
-68 86 4 3 -1 6 -10 6 -9 0 -17 4 -17 10 0 13 -62 76 -72 72 -4 -1 -7 1 -6 5
3 9 -60 73 -71 73 -5 0 -20 12 -35 26 -14 15 -26 24 -26 20 0 -4 -10 2 -22 14
-12 11 -28 20 -35 20 -7 0 -13 5 -13 12 0 6 -3 8 -7 5 -3 -4 -12 -2 -20 4 -7
6 -13 8 -13 4 0 -4 -7 -1 -16 6 -9 7 -21 14 -28 15 -6 2 -24 7 -41 11 -16 5
-40 8 -52 7 -14 -1 -23 4 -23 14 0 12 -3 12 -24 -2 -16 -10 -27 -12 -31 -5 -5
6 -11 7 -19 0 -7 -6 -17 -6 -26 -1 -8 5 -19 6 -25 2 -5 -3 -19 -8 -30 -9 -11
-2 -24 -8 -29 -13 -6 -6 -17 -10 -26 -10 -20 0 -122 -89 -115 -101 3 -4 -4
-13 -15 -19 -11 -6 -18 -15 -15 -21 4 -5 1 -9 -5 -9 -6 0 -9 -4 -5 -9 3 -5 1
-12 -5 -16 -6 -4 -8 -10 -5 -15 3 -4 -2 -10 -10 -14 -8 -3 -12 -12 -9 -21 3
-8 2 -15 -3 -15 -5 0 -9 -10 -8 -23 1 -12 -2 -30 -7 -41 -11 -21 -18 -55 -22
-108 -1 -20 -7 -43 -12 -50 -6 -7 -9 -28 -9 -45 1 -18 -1 -33 -4 -33 -5 0 -8
-16 -14 -102 -1 -16 -5 -28 -9 -28 -3 0 -5 -11 -4 -24 2 -14 -3 -27 -11 -30
-8 -3 -11 -11 -8 -16 8 -14 -3 -62 -13 -56 -4 2 -8 -9 -8 -26 -1 -17 -7 -34
-13 -38 -7 -4 -12 -9 -11 -11 3 -8 -14 -43 -29 -62 -37 -46 -110 -115 -115
-110 -3 4 -6 2 -6 -4 0 -6 -9 -13 -21 -16 -13 -4 -18 -10 -13 -18 4 -8 3 -10
-4 -5 -6 4 -22 1 -34 -6 -13 -7 -27 -11 -32 -10 -5 2 -12 -2 -16 -8 -4 -6 -17
-12 -28 -13 -12 -1 -22 -4 -22 -7 0 -3 -17 -5 -37 -5 -21 0 -41 -4 -45 -10 -5
-7 -8 -7 -8 0 0 6 -16 10 -35 9 -19 -1 -38 2 -41 7 -3 5 -13 9 -24 9 -24 0
-102 45 -93 53 3 4 0 7 -8 7 -15 0 -119 95 -119 109 0 4 -9 17 -20 29 -12 12
-18 22 -15 22 4 0 -3 16 -15 35 -12 19 -18 35 -13 35 4 0 3 4 -4 8 -6 4 -13
14 -15 22 -2 8 -9 21 -16 28 -7 8 -10 17 -7 22 3 4 -2 20 -10 36 -7 15 -12 32
-8 36 3 5 -3 16 -13 23 -11 8 -14 15 -7 15 9 0 9 8 1 33 -5 17 -11 54 -13 80
-2 27 -5 50 -8 53 -2 3 -3 18 -1 35 3 22 0 28 -9 23 -9 -6 -9 -4 -1 7 15 19
15 101 0 92 -8 -5 -8 -3 0 8 9 12 13 39 18 144 1 17 5 36 9 43 5 7 4 12 -3 12
-7 0 -8 7 -3 17 5 10 8 31 7 46 0 15 3 30 8 33 4 3 3 14 -2 25 -6 10 -7 19 -3
19 4 0 7 15 7 32 -1 18 3 41 8 52 7 13 7 16 -1 12 -14 -9 -14 0 0 26 8 16 8
19 -1 13 -9 -6 -9 -3 -1 13 6 12 7 23 2 26 -9 6 -7 48 4 65 3 6 0 11 -7 11 -9
0 -9 3 2 10 13 9 13 10 0 10 -12 0 -13 2 -1 9 11 7 11 9 0 13 -12 4 -12 7 0
21 10 13 10 17 1 17 -7 0 -10 8 -8 18 3 11 -1 30 -8 43 -7 13 -13 18 -14 11 0
-8 -6 -12 -12 -10 -7 3 -21 -5 -31 -16 -10 -12 -16 -15 -12 -8 13 26 -8 9 -91
-73 -48 -49 -90 -83 -96 -79 -7 4 -8 3 -4 -4 6 -11 -31 -38 -46 -34 -5 1 -8
-2 -8 -8 0 -5 -7 -10 -16 -10 -8 0 -12 -4 -9 -10 3 -5 0 -7 -8 -4 -8 3 -18 0
-22 -5 -3 -6 -11 -9 -16 -6 -5 4 -9 1 -9 -6 0 -7 -3 -10 -6 -7 -3 4 -19 2 -35
-2 -16 -5 -31 -5 -34 0 -3 4 -13 7 -23 5 -9 -1 -27 4 -40 12 -12 7 -27 11 -32
8 -6 -3 -10 1 -10 9 0 9 -7 16 -15 16 -7 0 -18 7 -23 16 -5 9 -13 17 -18 17
-13 3 -64 63 -64 76 0 6 -4 11 -10 11 -5 0 -10 5 -10 11 0 6 -8 23 -19 37 -10
15 -22 38 -26 52 -4 14 -15 34 -24 44 -13 16 -13 18 -1 11 12 -6 13 -5 3 6 -7
7 -13 21 -13 31 0 10 -4 18 -10 18 -5 0 -7 6 -4 14 3 8 1 17 -5 20 -6 4 -8 13
-5 20 3 7 -2 18 -10 25 -8 7 -13 18 -10 25 3 7 0 25 -5 39 -8 19 -7 27 0 27 8
0 8 4 0 14 -7 8 -13 43 -14 79 -1 36 -5 63 -8 61 -8 -4 -3 41 6 55 3 6 0 11
-7 11 -9 0 -9 3 2 10 8 5 10 10 4 10 -12 0 -12 28 -1 47 4 6 3 15 -3 18 -8 5
-7 11 1 21 9 11 8 14 -2 14 -11 0 -11 2 0 9 13 8 13 12 0 27 -8 10 -9 15 -3
11 7 -4 11 12 10 51 -1 31 1 69 5 83 4 16 2 32 -4 39 -9 10 -9 11 2 5 11 -6
13 -3 9 12 -3 11 -1 28 4 37 6 11 5 16 -3 16 -8 0 -8 4 -2 13 5 6 9 27 8 45 0
17 2 32 6 32 3 0 5 14 3 31 -2 16 0 28 4 25 4 -2 8 21 9 52 1 32 7 59 15 63
11 7 11 9 0 9 -7 0 -10 5 -6 12 4 6 8 21 10 32 1 12 5 35 9 51 4 17 7 40 8 53
1 12 5 22 10 22 4 0 6 4 2 9 -3 5 -1 13 5 16 6 4 8 15 5 25 -3 10 -1 21 4 24
5 4 8 15 6 26 -2 11 1 20 7 20 6 0 9 3 5 6 -3 3 1 23 8 44 7 21 11 41 8 44 -4
3 -2 6 3 6 5 0 11 9 12 20 1 11 3 29 4 40 1 11 5 20 8 20 4 0 7 6 7 13 1 6 13
46 28 87 15 41 28 80 30 85 1 6 8 24 15 40 8 17 14 35 15 41 0 6 5 18 11 25
12 15 28 68 26 82 -1 4 4 6 10 5 8 -2 13 6 12 20 -1 12 3 22 7 22 5 0 9 9 9
20 0 11 5 20 11 20 6 0 9 6 6 14 -3 8 0 20 8 26 8 6 17 25 20 41 4 16 11 29
16 29 5 0 9 9 9 20 0 11 4 20 8 20 4 0 14 20 21 45 7 25 17 45 22 45 5 0 9 9
9 19 0 11 5 23 11 26 6 4 8 14 5 22 -3 8 -1 11 4 8 9 -6 14 8 11 28 -1 4 6 10
14 13 8 3 12 10 10 15 -3 5 2 23 12 41 9 18 18 38 19 43 6 32 10 41 24 52 11
9 12 12 2 13 -10 0 -9 4 2 16 9 8 14 19 11 24 -3 5 0 10 6 12 6 2 12 16 12 31
0 15 3 24 8 21 5 -3 10 2 10 10 2 17 5 33 9 41 1 3 4 10 5 15 1 6 4 12 5 15 4
8 7 17 15 52 4 18 11 31 14 28 4 -2 7 6 8 18 1 54 4 68 11 63 5 -3 7 11 6 30
-2 19 1 34 8 34 7 0 7 4 -1 14 -8 10 -8 16 2 24 7 7 13 26 12 44 -1 18 3 36 8
40 7 4 6 12 -2 22 -8 9 -9 16 -4 16 5 0 8 24 8 53 -1 28 4 58 9 66 8 11 8 13
-1 8 -8 -5 -11 1 -9 20 1 16 -2 36 -7 47 -6 13 -6 16 2 12 6 -4 11 -3 11 3 0
5 -5 13 -11 17 -6 3 -9 15 -6 25 3 10 2 21 -3 24 -4 3 -10 14 -13 25 -3 12 -1
18 5 14 5 -4 5 3 -2 15 -6 12 -13 30 -15 39 -7 39 -10 47 -18 53 -5 4 -10 18
-10 33 -1 14 -5 26 -9 26 -5 0 -8 7 -8 15 0 8 -4 15 -10 15 -5 0 -10 7 -10 15
0 8 -5 15 -11 15 -5 0 -8 4 -4 9 3 5 0 15 -7 23 -7 7 -20 26 -28 42 -8 16 -27
42 -41 57 -15 16 -24 31 -21 34 3 3 0 5 -6 5 -7 0 -12 5 -12 11 0 12 -26 40
-36 38 -3 0 -16 8 -28 18 -12 11 -37 26 -54 34 -18 8 -32 18 -32 22 0 5 -4 6
-9 2 -5 -3 -12 -1 -16 5 -4 6 -11 8 -16 5 -5 -4 -9 -1 -9 4 0 6 -6 11 -14 11
-8 0 -31 9 -53 19 -42 21 -126 48 -132 43 -2 -2 -7 1 -11 7 -3 6 -16 13 -28
16 -11 2 -29 8 -40 14 -11 6 -22 7 -26 4 -3 -3 -6 -1 -6 5 0 7 -6 12 -12 13
-25 1 -108 46 -101 54 5 4 3 5 -4 1 -7 -4 -21 2 -33 14 -11 11 -20 17 -20 14
0 -8 -23 19 -38 45 -15 25 -14 109 1 129 5 6 6 12 2 12 -4 0 -2 7 5 15 7 8 9
15 5 15 -4 0 -2 6 4 13 6 8 8 17 4 20 -3 4 1 9 10 13 9 3 13 12 10 20 -3 8 -1
14 5 14 5 0 13 11 16 25 4 14 11 23 17 20 5 -4 9 -3 8 2 -4 23 0 30 51 90 5 7
10 17 10 23 0 5 5 10 12 10 6 0 9 3 5 6 -3 3 6 17 20 30 14 13 22 24 17 24 -5
0 -1 5 9 11 9 6 15 14 12 20 -4 5 1 9 9 9 9 0 16 3 16 8 0 4 16 25 35 47 19
22 35 44 35 48 0 5 5 5 10 2 6 -3 10 -3 10 2 0 9 90 109 90 100 0 -4 16 9 35
28 19 19 39 35 45 35 5 0 10 5 10 10 0 6 11 15 25 22 13 6 22 15 19 19 -3 5 2
9 11 9 8 0 18 7 21 15 4 8 10 12 15 9 5 -3 9 0 9 7 0 7 3 10 6 6 4 -3 12 -1
19 6 22 22 63 50 67 46 2 -2 15 6 28 19 14 13 43 32 66 42 22 11 47 26 54 35
7 9 19 14 26 11 7 -3 15 2 18 10 3 9 10 12 16 9 5 -3 10 -1 10 5 0 6 5 8 10 5
6 -3 13 1 16 9 3 9 10 13 15 10 5 -3 9 0 9 6 0 6 5 8 10 5 6 -3 17 1 26 9 8 9
22 16 30 16 8 0 14 6 14 13 0 8 4 7 10 -3 7 -11 10 -11 10 -2 0 7 5 10 10 7 6
-3 10 -1 10 5 0 6 5 8 10 5 6 -3 10 -1 10 4 0 6 9 11 20 11 11 0 20 4 20 10 0
5 3 9 8 8 7 -3 52 13 107 37 16 8 33 11 37 9 4 -3 8 -1 8 5 0 5 11 8 25 7 13
-2 22 1 19 5 -5 8 13 13 44 12 6 -1 12 2 12 6 0 4 6 8 13 9 6 0 32 6 57 13 25
6 51 12 58 12 6 0 12 3 12 7 0 3 12 7 28 8 31 1 53 5 67 13 6 3 27 5 47 5 21
-1 38 2 38 6 0 4 10 7 23 7 44 -1 145 9 156 15 6 4 11 1 11 -6 0 -9 3 -9 10 2
7 11 10 11 10 2 0 -10 5 -10 20 -2 11 6 20 7 20 2 0 -10 34 -8 63 3 11 5 17 2
17 -6 0 -9 3 -10 8 -4 11 15 32 17 32 3 0 -6 7 -3 16 8 8 10 13 14 10 8 -3 -7
1 -15 10 -18 8 -3 13 -2 10 2 -3 5 15 8 39 8 24 0 42 -3 39 -7 -2 -4 4 -6 13
-4 10 2 18 4 18 5 0 1 15 3 33 4 17 1 32 -1 32 -4 0 -8 44 -5 59 4 5 4 13 2
16 -4 5 -8 11 -7 21 1 8 6 14 8 14 3 0 -5 17 -9 38 -9 34 0 38 2 34 22 -2 13
-8 23 -13 23 -5 0 -9 9 -9 20 0 11 -7 23 -15 26 -8 4 -12 10 -9 15 3 5 0 9 -6
9 -6 0 -9 4 -6 9 3 5 -1 11 -9 15 -8 3 -15 11 -15 18 0 8 -9 20 -20 28 -11 8
-20 18 -20 23 0 9 -76 87 -85 87 -3 0 -19 14 -37 30 -17 17 -37 30 -44 30 -7
0 -17 6 -21 13 -10 17 -124 87 -141 87 -6 0 -12 5 -12 11 0 5 -4 8 -9 5 -5 -4
-11 -2 -13 4 -2 6 -14 12 -27 15 -14 2 -28 10 -33 17 -4 7 -8 9 -8 5 0 -5 -12
-2 -27 6 -16 7 -43 21 -61 30 -21 11 -30 12 -26 4 5 -8 2 -7 -9 2 -9 7 -24 11
-32 7 -9 -3 -14 -2 -11 2 2 4 -11 12 -29 18 -20 6 -32 7 -28 1 3 -5 -6 -1 -21
8 -20 14 -26 14 -26 4 0 -9 -3 -10 -8 -4 -4 6 -25 10 -47 10 -22 0 -48 3 -59
8 -14 7 -17 6 -10 -5 6 -10 5 -11 -7 -1 -12 10 -18 10 -28 0 -8 -8 -14 -8 -19
-2 -4 6 -14 10 -22 10 -8 -1 -21 3 -27 8 -9 6 -13 6 -13 -2 0 -7 -12 -9 -32
-6 -18 3 -63 6 -100 8 -38 1 -68 6 -68 11 0 5 -7 3 -15 -4 -12 -10 -15 -10
-15 1 0 11 -2 11 -10 -1 -8 -12 -10 -12 -10 -1 0 10 -3 11 -14 2 -11 -9 -15
-9 -18 0 -2 7 -23 11 -51 11 -26 -1 -47 3 -47 8 0 5 -8 7 -19 5 -10 -2 -31 3
-45 10 -15 8 -24 9 -20 4 4 -6 -5 -4 -18 5 -14 9 -28 13 -31 9 -4 -3 -7 -1 -7
5 0 7 -6 12 -13 12 -14 0 -47 35 -47 50 0 6 -5 10 -12 10 -6 0 -8 3 -5 7 4 3
0 17 -8 29 -11 17 -12 24 -2 27 9 4 9 6 -1 6 -7 1 -10 5 -7 11 3 5 1 19 -5 30
-8 15 -8 20 2 20 10 0 10 2 0 9 -8 4 -13 11 -13 15 1 3 0 7 0 9 -1 1 -2 18 -3
37 -1 19 -5 40 -9 46 -4 7 -9 29 -12 50 -2 21 -8 40 -12 43 -5 3 -9 22 -11 41
-1 19 -7 37 -13 40 -5 4 -7 14 -3 23 3 10 1 17 -6 17 -6 0 -8 5 -5 10 3 6 3
16 -2 23 -4 6 -8 18 -10 26 -1 8 -6 17 -11 20 -5 3 -8 14 -6 23 1 10 -2 20 -7
24 -5 3 -7 10 -4 15 4 5 2 9 -2 9 -5 0 -10 10 -10 22 -1 13 -7 24 -13 26 -5 2
-8 8 -4 13 3 5 1 9 -5 9 -6 0 -8 6 -5 13 3 8 -2 19 -10 26 -8 7 -12 19 -9 27
3 8 0 14 -7 14 -6 0 -9 4 -5 9 3 5 -2 17 -11 25 -8 9 -13 16 -9 16 3 0 0 10
-7 23 -6 12 -13 29 -14 37 -2 8 -8 16 -13 18 -6 2 -11 12 -11 23 0 10 -4 19
-9 19 -5 0 -12 11 -15 25 -4 14 -11 25 -17 25 -6 0 -7 5 -4 10 3 6 1 10 -5 10
-6 0 -9 4 -5 9 3 5 -2 16 -10 24 -8 9 -15 18 -15 21 0 4 -12 25 -27 49 -15 23
-26 45 -25 50 1 4 -2 7 -7 7 -5 0 -14 14 -21 30 -7 17 -16 30 -21 30 -4 0 -16
16 -25 35 -9 19 -21 35 -26 35 -5 0 -6 5 -3 10 3 6 1 10 -4 10 -6 0 -11 6 -11
14 0 8 -7 16 -15 20 -8 3 -15 10 -15 16 0 6 -13 25 -30 43 -16 18 -30 38 -30
45 0 6 -4 12 -10 12 -5 0 -10 7 -10 16 0 8 -4 13 -9 10 -4 -3 -13 6 -19 19 -7
14 -16 25 -22 25 -5 0 -10 6 -10 13 0 6 -17 30 -38 53 -20 23 -59 67 -87 99
-66 77 -75 85 -86 85 -6 0 -7 5 -4 10 3 6 -1 13 -9 16 -9 3 -16 14 -16 23 0
14 -2 14 -10 1 -9 -13 -10 -13 -10 0 0 9 -18 33 -40 54 -22 21 -40 42 -40 47
0 6 -4 7 -10 4 -5 -3 -10 1 -10 10 0 9 -4 13 -10 10 -5 -3 -10 1 -10 9 0 9 -6
16 -14 16 -8 0 -18 9 -21 20 -4 11 -11 18 -16 15 -5 -4 -9 1 -9 9 0 9 -4 15
-8 14 -5 -2 -32 21 -60 50 -29 28 -54 52 -58 52 -9 0 -33 27 -29 32 3 3 -6 11
-20 18 -14 7 -25 17 -25 22 0 4 -7 8 -16 8 -8 0 -13 4 -10 9 3 4 -6 13 -20 20
-16 7 -22 16 -18 24 4 6 4 9 -1 5 -4 -4 -13 -2 -20 5 -7 7 -31 28 -55 47 -23
19 -49 43 -58 53 -9 9 -22 17 -29 17 -7 0 -13 7 -13 16 0 8 -4 12 -10 9 -5 -3
-10 1 -10 10 0 11 -5 15 -14 12 -9 -4 -17 2 -21 14 -4 10 -12 19 -19 19 -7 0
-25 14 -40 30 -15 17 -30 28 -35 26 -4 -3 -14 6 -21 19 -7 13 -17 22 -22 19
-4 -3 -11 2 -14 10 -3 9 -12 16 -20 16 -8 0 -14 5 -14 10 0 6 -7 10 -15 10 -9
0 -18 7 -21 15 -4 8 -10 13 -14 10 -5 -3 -11 4 -15 15 -3 11 -13 20 -21 20 -8
0 -14 5 -14 10 0 6 -5 10 -10 10 -11 0 -24 10 -61 43 -10 9 -23 17 -27 17 -4
0 -14 9 -22 20 -8 11 -20 20 -27 20 -7 0 -13 4 -13 9 0 5 -9 13 -20 16 -11 3
-20 13 -20 20 0 8 -6 12 -14 9 -7 -3 -16 2 -19 10 -4 9 -13 16 -21 16 -8 0
-24 12 -35 26 -12 15 -21 23 -21 18 0 -5 -4 -4 -8 1 -4 6 -29 26 -56 45 -27
19 -59 45 -72 57 -14 13 -27 23 -29 23 -18 2 -34 14 -29 21 3 5 0 10 -5 10 -6
1 -15 2 -21 3 -5 0 -16 10 -25 21 -9 11 -13 13 -9 5 5 -11 2 -11 -12 2 -55 50
-92 77 -98 71 -3 -3 -6 -1 -6 6 0 7 -5 9 -10 6 -6 -4 -9 -3 -8 2 2 4 -1 9 -5
10 -4 1 -17 12 -27 25 -11 13 -19 19 -20 15 0 -4 -12 4 -27 18 -16 14 -36 28
-45 31 -10 3 -18 12 -18 20 0 8 -3 13 -7 13 -22 -4 -33 3 -33 18 0 9 -3 13 -7
10 -3 -4 -14 0 -24 9 -13 12 -17 12 -15 2z m1999 -7035 c-3 -7 -8 -11 -12 -8
-4 2 -8 -1 -8 -8 0 -17 -33 -67 -45 -67 -5 0 -6 -5 -3 -10 3 -6 -1 -13 -9 -16
-9 -3 -13 -10 -10 -15 3 -5 -2 -9 -10 -9 -9 0 -16 -4 -16 -10 0 -15 -72 -105
-81 -103 -5 2 -6 -4 -3 -12 4 -8 -1 -17 -10 -21 -9 -3 -16 -12 -16 -19 0 -7
-7 -16 -16 -19 -8 -3 -12 -10 -9 -16 3 -5 1 -10 -5 -10 -6 0 -8 -5 -5 -10 3
-6 -1 -13 -9 -16 -9 -3 -16 -10 -16 -15 0 -5 -12 -28 -26 -50 -14 -23 -20 -38
-12 -34 7 3 5 0 -4 -8 -10 -8 -18 -17 -18 -20 0 -3 -5 -18 -11 -34 -6 -15 -9
-28 -7 -28 1 0 -5 -11 -15 -25 -9 -13 -17 -35 -17 -47 0 -13 -4 -23 -10 -23
-5 0 -10 -11 -10 -24 0 -14 -4 -27 -9 -30 -5 -3 -8 -19 -7 -35 1 -16 -2 -29
-8 -28 -5 1 -11 -16 -13 -38 -2 -21 -7 -42 -12 -45 -4 -3 -7 -15 -6 -27 1 -13
-1 -23 -5 -23 -4 0 -6 -11 -5 -25 2 -14 0 -25 -3 -25 -4 0 -8 -23 -10 -52 -1
-28 -8 -58 -15 -66 -9 -13 -9 -14 1 -8 13 8 17 -6 5 -18 -4 -3 -8 -21 -9 -39
0 -17 -2 -32 -4 -32 -1 0 -3 -22 -5 -50 -1 -27 -3 -52 -5 -55 -1 -3 -2 -30 -2
-60 0 -69 -10 -83 -45 -65 -15 8 -30 12 -35 9 -4 -3 -8 -1 -8 4 0 5 -6 9 -12
10 -28 1 -62 12 -82 26 -15 9 -27 11 -39 4 -12 -6 -19 -5 -23 6 -3 8 -12 17
-20 20 -10 4 -12 2 -8 -6 4 -7 -6 -2 -23 10 -17 12 -41 22 -52 22 -12 0 -21 5
-21 10 0 6 -11 10 -25 10 -14 0 -25 5 -25 11 0 5 -3 8 -8 5 -4 -2 -16 2 -26 9
-19 14 -23 51 -11 95 3 14 7 31 7 38 1 6 5 12 10 12 4 0 7 3 6 8 -3 15 15 82
23 88 5 3 7 10 4 15 -4 5 -1 9 5 9 6 0 9 4 6 9 -8 13 4 42 15 36 4 -3 6 3 4
13 -2 10 14 53 35 95 22 42 36 77 32 77 -4 0 -2 4 4 8 9 6 22 29 58 99 6 13
14 23 19 23 4 0 7 6 7 13 0 8 11 27 25 43 13 15 22 30 20 32 -6 7 19 30 28 25
4 -2 7 3 7 11 0 9 8 25 18 36 9 10 27 31 40 45 12 14 20 25 17 25 -3 0 8 13
25 30 16 16 30 35 30 41 0 7 2 10 5 7 3 -2 39 29 82 69 42 41 87 81 99 90 13
8 21 19 18 24 -3 5 3 9 13 9 10 0 26 8 35 18 28 29 52 47 60 45 5 -2 8 2 8 7
0 6 7 10 15 10 8 0 15 5 15 10 0 6 7 10 16 10 8 0 12 5 9 10 -4 6 -3 9 2 8 12
-3 83 25 83 33 0 4 7 10 16 13 10 4 13 2 8 -6 -4 -6 3 -4 17 5 22 16 24 16 35
-5 7 -12 10 -28 7 -35z m-1953 -1145 c0 -10 2 -10 8 -1 9 15 65 10 70 -6 2 -6
8 -9 13 -6 5 4 27 -12 50 -34 22 -23 43 -41 45 -41 3 0 15 -10 28 -22 33 -33
107 -92 120 -97 11 -4 27 -17 57 -43 10 -10 25 -18 33 -18 8 0 16 -7 20 -15 3
-8 12 -15 21 -15 8 0 15 -5 15 -11 0 -5 5 -7 10 -4 6 3 10 1 10 -4 0 -6 7 -11
15 -11 8 0 15 -4 15 -10 0 -5 7 -10 15 -10 8 0 15 -4 15 -10 0 -5 7 -10 15
-10 8 0 15 -4 15 -10 0 -6 3 -9 8 -9 20 3 33 -2 27 -11 -4 -6 -3 -10 2 -9 21
4 44 -2 39 -9 -5 -8 75 -49 82 -43 2 1 12 -7 22 -19 10 -12 20 -20 22 -18 6 5
88 -35 88 -44 0 -4 9 -8 20 -8 11 0 20 -4 20 -9 0 -5 11 -12 25 -15 14 -4 23
-11 20 -15 -3 -5 4 -7 15 -4 11 3 20 0 20 -6 0 -6 7 -11 16 -11 8 0 13 -3 11
-7 -3 -5 7 -9 21 -10 15 0 28 -6 30 -12 2 -6 8 -9 13 -5 5 3 9 1 9 -5 0 -6 7
-7 17 -4 11 4 14 3 9 -6 -5 -8 -3 -11 5 -10 8 1 28 -4 44 -11 17 -7 37 -14 45
-14 8 0 21 -6 28 -13 8 -7 18 -11 23 -8 5 4 9 1 9 -5 0 -7 7 -10 15 -7 8 4 17
2 21 -4 3 -6 12 -8 19 -5 8 3 15 1 17 -5 2 -5 18 -10 36 -12 17 -1 32 -5 32
-9 0 -5 6 -8 13 -8 6 0 28 -17 47 -37 19 -20 29 -33 21 -28 -11 6 -13 4 -6
-11 4 -10 8 -29 8 -41 -1 -13 2 -23 6 -23 3 0 7 -13 7 -30 1 -16 5 -37 9 -47
11 -26 13 -53 3 -47 -4 3 -8 0 -8 -5 0 -6 4 -11 9 -11 6 0 10 -8 9 -17 0 -10
3 -46 6 -80 3 -35 2 -63 -2 -63 -4 0 -7 -18 -6 -40 1 -22 -3 -37 -7 -34 -5 3
-9 0 -9 -6 0 -22 -46 -80 -63 -80 -10 0 -16 -4 -13 -9 5 -8 -2 -12 -54 -28 -8
-2 -30 -4 -48 -3 -24 0 -31 -3 -26 -11 4 -7 -3 -5 -16 4 -16 11 -29 13 -47 6
-16 -6 -22 -5 -18 1 3 6 4 10 1 10 -2 0 -12 3 -22 7 -13 5 -15 3 -9 -8 5 -8 1
-7 -12 4 -11 9 -23 14 -26 10 -4 -3 -7 -1 -7 6 0 7 -4 10 -9 7 -4 -3 -17 1
-27 9 -10 8 -27 15 -36 15 -10 0 -18 4 -18 8 0 5 -7 9 -15 10 -8 1 -22 3 -30
4 -8 1 -15 4 -15 8 0 3 -16 12 -35 19 -19 7 -35 17 -35 23 0 5 -7 7 -16 4 -10
-4 -13 -2 -8 6 5 7 2 9 -9 5 -8 -3 -21 1 -27 8 -7 8 -16 13 -20 10 -4 -2 -15
4 -25 15 -10 11 -22 17 -26 14 -5 -3 -9 -1 -9 5 0 5 -10 13 -22 17 -13 4 -29
15 -36 25 -7 11 -20 19 -28 19 -8 0 -14 5 -14 10 0 6 -5 10 -11 10 -6 0 -16 6
-24 13 -7 6 -37 32 -66 57 -80 68 -187 180 -172 180 4 0 -3 7 -15 16 -12 8
-20 19 -17 24 3 4 -2 10 -10 14 -8 3 -15 10 -15 16 0 11 -10 26 -46 65 -12 13
-19 26 -16 29 3 3 0 6 -7 6 -7 0 -9 5 -6 10 3 6 1 10 -5 10 -6 0 -9 4 -6 9 3
5 -1 11 -9 15 -8 3 -15 12 -15 21 0 8 -5 15 -12 15 -6 0 -9 3 -5 6 3 4 -1 13
-9 21 -8 8 -12 19 -9 24 4 5 2 9 -4 9 -6 0 -18 15 -27 33 -9 17 -22 35 -28 39
-6 4 -8 8 -4 8 3 0 -2 22 -12 49 -11 27 -16 51 -13 55 4 3 1 6 -7 6 -10 0 -10
3 0 15 10 12 10 15 0 15 -7 0 -10 8 -7 20 3 11 1 23 -4 26 -6 3 -5 11 2 20 9
11 8 14 -2 15 -11 0 -11 2 -1 6 10 4 10 8 1 19 -7 8 -9 17 -6 20 5 5 -13 28
-65 85 -10 10 -15 19 -11 19 3 0 -4 8 -15 19 -12 10 -22 23 -22 30 0 6 -4 11
-10 11 -5 0 -7 6 -4 14 3 8 1 17 -5 20 -12 7 -4 36 10 36 5 0 9 -6 9 -12z"/>
<path d="M5239 10303 c-1 -5 -1 -11 0 -15 0 -5 -7 -8 -16 -8 -14 0 -15 -2 -4
-9 11 -7 10 -11 -5 -20 -14 -8 -15 -11 -4 -11 13 0 13 -1 0 -10 -8 -5 -10 -10
-5 -10 6 0 4 -4 -2 -8 -7 -4 -14 -17 -17 -27 -9 -46 -19 -64 -29 -58 -6 3 -7
1 -3 -6 4 -6 2 -18 -4 -26 -7 -8 -9 -15 -5 -15 4 0 0 -11 -9 -25 -9 -14 -13
-25 -10 -25 4 0 0 -8 -9 -18 -10 -10 -14 -22 -11 -25 4 -4 0 -9 -9 -13 -9 -3
-13 -12 -10 -20 3 -8 0 -14 -6 -14 -6 0 -11 -7 -11 -15 0 -8 -5 -15 -11 -15
-5 0 -7 -4 -4 -10 3 -5 1 -10 -5 -10 -6 0 -8 -4 -5 -10 3 -5 2 -10 -3 -10 -5
0 -15 -13 -22 -30 -7 -16 -16 -30 -21 -30 -5 0 -9 -5 -9 -11 0 -6 -6 -17 -12
-24 -31 -34 -36 -43 -31 -49 4 -3 1 -6 -5 -6 -7 0 -12 -6 -12 -13 0 -7 -9 -19
-20 -27 -11 -8 -20 -20 -20 -26 0 -7 -7 -14 -15 -18 -8 -3 -15 -12 -15 -21 0
-8 -5 -15 -10 -15 -6 0 -16 -11 -22 -25 -6 -14 -17 -25 -25 -25 -7 0 -12 -3
-11 -7 3 -9 -23 -42 -69 -89 -18 -18 -33 -38 -33 -45 0 -7 -3 -10 -6 -7 -3 4
-22 -12 -42 -35 -59 -66 -114 -117 -125 -117 -6 0 -7 -3 -4 -6 4 -4 -24 -37
-61 -74 -37 -36 -78 -79 -90 -95 -12 -15 -22 -25 -22 -21 0 4 -18 -14 -40 -39
-22 -26 -55 -61 -73 -78 -18 -18 -41 -45 -50 -60 -10 -15 -22 -25 -27 -22 -6
4 -10 1 -10 -5 0 -6 -16 -27 -35 -47 -19 -20 -35 -40 -35 -45 0 -5 -4 -6 -10
-3 -5 3 -10 0 -10 -7 0 -8 -9 -20 -20 -28 -11 -8 -20 -20 -20 -27 0 -7 -7 -13
-17 -13 -9 0 -13 -3 -10 -7 4 -3 -7 -19 -23 -35 -16 -15 -26 -28 -22 -28 4 0
-1 -5 -11 -11 -9 -6 -15 -14 -12 -20 4 -5 -1 -9 -9 -9 -9 0 -16 -4 -16 -9 0
-4 -10 -19 -22 -33 -13 -14 -32 -37 -42 -52 -11 -15 -29 -37 -40 -50 -40 -44
-56 -66 -49 -66 3 0 -5 -10 -19 -22 -14 -13 -35 -39 -48 -58 -13 -19 -34 -45
-46 -56 -13 -12 -20 -25 -17 -28 3 -3 -2 -8 -11 -12 -9 -3 -14 -10 -11 -14 3
-5 -3 -15 -13 -22 -11 -7 -19 -15 -19 -18 2 -13 -51 -79 -58 -72 -5 4 -5 2 -2
-4 4 -7 0 -17 -8 -24 -8 -7 -15 -17 -15 -22 0 -5 -6 -15 -12 -23 -7 -7 -22
-25 -33 -39 -11 -15 -26 -33 -33 -41 -7 -8 -11 -15 -8 -15 3 0 -2 -9 -12 -20
-9 -12 -17 -24 -17 -29 0 -4 -7 -15 -15 -24 -33 -36 -40 -47 -40 -62 0 -9 -4
-14 -9 -11 -5 3 -12 -5 -15 -19 -4 -14 -11 -25 -17 -25 -6 0 -7 -4 -4 -10 3
-5 2 -10 -4 -10 -5 0 -13 -9 -16 -20 -4 -11 -11 -18 -16 -14 -5 3 -8 2 -7 -3
2 -7 -49 -101 -62 -113 -13 -12 -41 -72 -36 -77 3 -3 -2 -12 -10 -21 -13 -12
-13 -16 -2 -23 9 -6 9 -9 1 -9 -14 0 -15 -73 -2 -108 16 -43 57 -73 103 -78
33 -3 45 0 50 12 3 8 11 12 17 9 6 -4 13 2 16 14 3 12 10 21 15 21 6 0 8 6 5
14 -3 8 -1 16 5 18 6 2 12 11 14 20 1 9 14 39 28 68 14 28 26 56 26 62 0 5 7
16 15 25 8 8 13 18 10 23 -3 4 2 11 11 14 8 3 14 11 13 18 -3 16 21 68 31 68
7 0 18 30 18 47 0 3 7 10 16 15 9 5 14 13 11 19 -4 5 -1 9 5 9 6 0 8 5 5 10
-3 6 -2 10 3 10 8 0 21 23 33 55 4 12 26 40 54 68 11 11 13 16 5 12 -16 -9 12
28 40 53 13 12 13 13 0 7 -13 -6 -13 -5 0 7 8 7 27 31 42 53 15 22 39 54 54
70 14 17 38 45 52 64 88 110 128 152 136 143 4 -4 6 -2 4 4 -1 6 14 28 35 48
21 20 35 36 31 36 -4 0 6 10 22 23 45 35 63 55 56 62 -4 4 -2 5 3 3 6 -1 21 5
35 15 13 9 21 17 17 17 -8 0 25 37 33 37 24 2 30 4 26 12 -3 5 10 19 29 32 19
13 35 27 35 32 0 4 5 7 11 7 7 0 20 10 30 22 11 11 19 18 19 15 0 -4 15 9 34
28 19 18 37 31 40 28 3 -4 6 1 6 11 0 9 4 14 10 11 5 -3 20 4 33 17 13 13 26
24 31 25 4 0 21 13 37 27 16 14 29 24 29 21 0 -3 10 3 22 15 12 11 26 20 30
20 5 0 18 9 30 20 12 10 26 17 31 13 6 -3 7 -1 4 4 -6 9 12 22 33 25 3 0 11 9
18 20 7 10 17 16 22 13 5 -3 12 0 17 7 4 7 24 24 43 38 42 29 55 39 81 63 10
9 20 16 22 15 2 -2 48 35 79 65 10 9 18 14 18 11 0 -3 14 8 31 25 17 17 35 31
40 31 6 0 7 5 4 10 -3 6 0 10 7 10 8 0 20 9 28 20 8 11 20 20 27 20 7 0 13 7
13 16 0 8 5 12 10 9 6 -3 10 1 10 9 0 8 9 18 20 21 11 4 19 9 17 13 -5 9 50
61 57 54 3 -3 6 -1 6 5 0 5 11 22 25 37 14 15 22 32 19 38 -4 6 -2 8 3 5 6 -4
23 11 38 32 14 22 34 42 42 45 8 4 13 12 10 20 -3 7 3 20 14 29 10 9 19 24 19
32 0 8 5 15 10 15 6 0 10 7 10 15 0 7 8 19 18 24 13 8 14 11 2 11 -12 0 -11 3
3 11 9 6 15 14 12 20 -4 5 -1 9 6 9 8 0 7 5 -2 17 -9 11 -10 14 -2 10 8 -5 15
2 19 20 4 15 12 34 18 42 8 11 8 13 -1 8 -9 -6 -9 -2 0 16 7 14 12 54 10 93
-2 76 -4 92 -17 113 -7 11 -6 12 5 6 11 -7 12 -6 2 6 -6 8 -13 23 -15 34 -1
11 -12 28 -23 38 -11 11 -14 16 -5 12 8 -3 5 2 -7 11 -13 9 -23 21 -23 25 0
13 -87 99 -100 99 -6 0 -8 5 -5 10 3 6 2 10 -4 10 -6 0 -27 11 -47 25 -38 26
-53 31 -55 18z"/>
<path d="M15186 5013 c-14 -13 -17 -14 -12 -3 4 8 -3 4 -16 -10 -13 -14 -31
-26 -39 -28 -8 -2 -16 -8 -17 -13 -2 -5 -8 -7 -13 -3 -5 3 -9 0 -9 -5 0 -6 -6
-11 -14 -11 -8 0 -17 -7 -20 -16 -3 -8 -10 -13 -15 -9 -5 3 -12 1 -16 -5 -4
-6 -11 -8 -16 -5 -5 4 -9 2 -9 -4 0 -11 -87 -61 -107 -61 -8 0 -11 -4 -8 -10
3 -5 -3 -10 -14 -10 -12 0 -21 -4 -21 -9 0 -7 -36 -22 -49 -20 -2 0 -7 -3 -10
-8 -3 -5 -34 -23 -68 -40 -35 -16 -59 -34 -55 -39 4 -4 0 -3 -9 4 -14 10 -18
10 -23 -3 -3 -8 -14 -15 -23 -15 -10 0 -29 -7 -41 -16 -12 -8 -26 -13 -31 -10
-5 4 -11 1 -13 -6 -2 -6 -15 -13 -28 -15 -13 -2 -27 -7 -30 -11 -3 -4 -12 -9
-20 -11 -29 -7 -35 -8 -70 -22 -19 -7 -42 -13 -52 -13 -10 1 -14 -4 -11 -12 3
-9 -2 -12 -16 -9 -12 2 -21 -1 -21 -7 0 -5 -7 -8 -15 -5 -8 4 -17 2 -20 -4 -4
-5 -11 -7 -16 -4 -5 4 -9 1 -9 -5 0 -7 -6 -10 -14 -7 -8 3 -17 -1 -20 -10 -5
-12 -9 -13 -21 -3 -11 9 -15 9 -15 1 0 -7 -4 -10 -9 -7 -5 4 -11 2 -13 -3 -1
-6 -14 -11 -28 -13 -14 -2 -31 -7 -37 -11 -7 -5 -17 -6 -22 -3 -5 3 -14 -1
-21 -10 -11 -12 -15 -12 -21 -2 -7 11 -9 11 -9 0 0 -7 -4 -10 -10 -7 -5 3 -10
1 -10 -5 0 -6 -4 -8 -10 -5 -5 3 -19 1 -30 -5 -15 -8 -20 -8 -20 2 0 10 -3 9
-9 -1 -5 -8 -20 -16 -33 -18 -13 -2 -32 -6 -43 -8 -11 -2 -24 -4 -28 -4 -5 -1
-5 -6 -1 -12 4 -7 -1 -7 -16 1 -15 8 -20 8 -16 1 5 -7 -3 -11 -18 -12 -31 -2
-63 -6 -73 -9 -5 -1 -11 -2 -15 -1 -5 0 -8 -4 -8 -11 0 -9 -3 -9 -11 -1 -9 9
-18 8 -35 -4 -19 -12 -24 -13 -24 -2 0 12 -2 12 -9 0 -5 -8 -16 -11 -25 -8 -9
4 -16 2 -16 -4 0 -6 -9 -5 -22 2 -20 11 -21 10 -11 -3 11 -13 7 -15 -27 -14
-22 1 -40 -3 -40 -8 0 -5 -3 -6 -7 -3 -3 4 -12 2 -19 -4 -8 -7 -14 -7 -19 1
-3 5 -11 10 -16 10 -6 0 -7 -5 -3 -11 5 -8 -1 -10 -20 -7 -19 4 -26 1 -26 -11
0 -10 -3 -12 -8 -5 -9 13 -52 13 -52 1 0 -5 -7 -4 -15 3 -12 10 -15 10 -15 0
0 -7 -8 -10 -20 -7 -11 3 -20 0 -20 -6 0 -7 -5 -5 -10 3 -5 8 -10 10 -10 4 0
-10 -39 -16 -97 -16 -13 0 -23 -4 -23 -9 0 -6 -9 -5 -20 1 -14 8 -20 8 -20 0
0 -6 -4 -9 -9 -6 -5 4 -21 2 -35 -4 -18 -7 -26 -6 -26 1 0 7 -5 8 -12 2 -7 -5
-30 -9 -50 -8 -21 0 -38 -2 -38 -5 0 -3 -36 -5 -79 -5 -44 0 -77 -3 -75 -6 5
-8 -42 -3 -57 7 -8 4 -9 3 -5 -4 4 -7 1 -12 -8 -12 -8 0 -18 5 -21 10 -4 6
-12 7 -18 3 -21 -13 -300 -13 -316 0 -12 9 -13 9 -7 0 4 -7 3 -13 -3 -13 -5 0
-13 5 -16 10 -4 6 -12 7 -18 3 -13 -8 -117 -11 -117 -3 0 3 -18 6 -41 8 -31 2
-39 0 -33 -10 6 -10 4 -10 -9 0 -20 17 -77 21 -96 7 -11 -7 -13 -7 -8 1 4 7 0
15 -9 18 -21 8 -26 8 -20 -2 3 -5 -1 -9 -9 -9 -8 0 -12 4 -9 9 3 4 -9 6 -26 4
-17 -2 -32 0 -35 4 -3 4 -18 6 -35 5 -16 -1 -30 1 -30 5 0 4 -7 11 -16 14 -10
4 -13 2 -8 -6 5 -8 -1 -9 -22 -3 -16 4 -37 7 -46 7 -10 0 -18 5 -18 11 0 7 -4
6 -10 -3 -5 -8 -10 -10 -10 -5 0 6 -14 12 -32 13 -18 2 -35 6 -38 10 -3 4 -22
8 -42 7 -21 0 -38 4 -38 9 0 4 -6 6 -14 3 -8 -3 -16 -2 -18 3 -2 5 -20 10 -40
12 -21 1 -38 5 -38 8 0 3 -8 7 -17 8 -10 1 -27 3 -38 4 -11 2 -26 10 -33 18
-12 13 -13 13 -6 0 7 -13 5 -13 -9 -2 -9 8 -21 11 -27 7 -5 -3 -10 -2 -10 4 0
6 -7 8 -15 5 -8 -4 -15 -1 -15 6 0 6 -4 9 -9 6 -5 -4 -11 0 -14 6 -2 7 -8 10
-12 6 -4 -4 -4 -15 0 -25 5 -10 7 -22 6 -28 -2 -5 0 -7 4 -3 9 8 35 -16 35
-31 0 -6 5 -11 11 -11 5 0 7 -4 4 -10 -3 -5 -1 -10 5 -10 6 0 28 -18 50 -40
22 -22 44 -40 50 -40 6 0 8 -4 5 -10 -3 -5 1 -10 9 -10 9 0 16 -5 16 -11 0 -5
5 -7 10 -4 6 3 13 -1 16 -9 3 -9 12 -16 20 -16 8 0 14 -4 14 -10 0 -5 3 -9 8
-8 4 1 18 -5 32 -14 14 -9 32 -18 40 -20 8 -2 21 -9 28 -15 7 -7 22 -13 33
-13 10 0 19 -4 19 -9 0 -5 11 -8 25 -6 15 1 29 -4 35 -14 4 -9 12 -13 16 -9 4
4 13 0 21 -10 8 -9 12 -11 8 -4 -3 6 -1 12 4 12 6 0 11 -4 11 -9 0 -5 11 -8
25 -7 13 2 22 0 20 -4 -3 -5 2 -11 11 -14 10 -4 13 -2 8 6 -5 7 -3 8 7 2 14
-8 27 -12 64 -19 11 -2 20 -4 20 -5 0 -3 39 -10 65 -12 14 -1 31 -6 39 -12 12
-9 13 -8 6 4 -7 12 -6 13 6 4 14 -10 56 -17 117 -18 17 -1 32 -4 32 -7 0 -4
19 -6 41 -5 24 1 47 -3 55 -12 8 -7 14 -9 14 -4 0 6 16 10 35 9 19 -1 35 -6
35 -11 0 -6 5 -4 10 4 5 8 10 10 10 4 0 -14 42 -13 52 1 5 6 8 5 8 -4 0 -8 7
-11 19 -8 12 3 22 -1 26 -12 6 -15 8 -15 19 1 7 10 16 15 20 11 3 -4 24 -7 46
-8 22 -1 43 -4 46 -8 12 -11 26 -8 18 4 -4 8 0 8 15 0 16 -9 21 -9 21 1 0 9 3
10 8 2 4 -6 35 -11 75 -10 37 1 67 -3 67 -8 0 -4 6 -3 14 3 11 9 15 9 19 -1 3
-7 6 -8 6 -3 1 10 80 11 106 1 8 -3 15 0 15 6 0 6 6 5 17 -3 11 -10 14 -10 9
-1 -4 6 -2 12 3 12 6 0 11 -5 11 -11 0 -8 4 -8 13 0 10 8 17 7 25 -1 9 -9 12
-9 12 1 0 11 3 11 15 1 12 -10 15 -10 15 1 0 11 2 11 10 -1 5 -8 10 -10 10 -5
0 6 46 10 118 9 64 0 123 4 129 9 7 5 20 6 30 3 9 -4 20 -1 25 6 6 10 8 10 8
1 0 -9 7 -10 25 -3 17 7 25 6 25 -1 0 -7 10 -5 25 5 26 17 39 21 32 9 -3 -5 6
-9 19 -9 13 -1 24 2 24 6 0 4 20 7 45 6 25 -1 45 3 45 9 0 5 5 3 10 -5 6 -9
10 -10 10 -3 0 6 9 10 20 8 11 -2 20 2 20 8 0 8 3 8 9 -1 6 -11 10 -10 15 3 5
13 10 14 19 7 9 -8 20 -7 39 2 16 9 31 10 42 4 9 -5 16 -5 16 0 0 4 11 8 25 8
14 0 25 -5 25 -10 0 -6 4 -4 10 4 5 8 20 15 35 16 14 0 28 4 32 7 3 4 13 1 21
-6 9 -6 13 -7 10 -2 -4 6 5 15 18 22 15 7 26 7 30 2 3 -6 11 -6 19 1 8 7 19 9
25 5 5 -3 10 -1 10 5 0 6 5 8 10 5 6 -4 17 -1 25 5 12 10 15 10 15 -1 0 -9 3
-10 8 -4 4 6 13 11 20 13 6 1 18 3 25 5 6 1 15 7 19 12 5 6 8 5 8 -4 0 -10 3
-11 13 -2 8 6 17 8 20 4 4 -3 7 -1 7 6 0 8 7 11 15 7 8 -3 15 0 15 7 0 9 2 9
9 -1 6 -10 10 -10 20 2 7 8 18 13 26 10 7 -3 16 -1 20 5 3 6 17 11 31 11 13 0
24 4 24 8 0 7 16 11 58 14 6 1 12 5 12 11 0 5 6 7 12 5 7 -3 19 1 26 9 8 7 17
11 22 8 4 -3 11 2 14 11 5 13 9 14 20 5 11 -9 15 -7 19 9 3 13 10 18 21 14 9
-4 16 -1 16 6 0 7 7 10 15 6 8 -3 19 2 24 12 6 9 11 13 11 9 0 -4 16 4 35 19
19 14 35 23 35 20 0 -4 11 5 25 19 14 14 30 25 35 25 14 0 56 43 52 53 -1 5 2
6 8 2 5 -3 13 1 16 9 3 9 9 14 13 12 3 -2 12 2 19 10 7 8 11 14 8 14 -3 0 8
15 25 32 16 18 29 36 29 41 0 4 5 5 12 1 6 -4 8 -3 5 3 -4 6 5 23 18 39 14 16
31 41 37 56 7 15 16 24 20 22 4 -3 8 4 8 15 0 13 7 21 18 21 13 0 14 2 4 9
-11 7 -10 9 3 15 9 3 13 10 10 16 -3 5 2 10 12 10 15 0 16 2 3 10 -9 6 -10 10
-3 10 6 0 17 16 24 35 7 19 17 35 21 35 4 0 8 3 7 8 -3 18 14 51 24 45 6 -3 7
-1 3 5 -4 6 -3 19 3 29 5 10 17 36 26 58 10 22 22 48 26 57 7 14 5 16 -8 11
-11 -4 -14 -3 -9 5 10 17 3 15 -18 -5z"/>
</g>
</svg>
